<?xml version="1.0" encoding="UTF-8" standalone="no"?>
<!-- Created with Inkscape (http://www.inkscape.org/) -->

<svg
   width="8.5834303mm"
   height="8.4627237mm"
   viewBox="0 0 8.5834303 8.4627237"
   version="1.1"
   id="svg954"
   inkscape:version="1.1.2 (b8e25be8, 2022-02-05)"
   sodipodi:docname="jfin.svg"
   xmlns:inkscape="http://www.inkscape.org/namespaces/inkscape"
   xmlns:sodipodi="http://sodipodi.sourceforge.net/DTD/sodipodi-0.dtd"
   xmlns="http://www.w3.org/2000/svg"
   xmlns:svg="http://www.w3.org/2000/svg">
  <sodipodi:namedview
     id="namedview956"
     pagecolor="#ffffff"
     bordercolor="#666666"
     borderopacity="1.0"
     inkscape:pageshadow="2"
     inkscape:pageopacity="0.0"
     inkscape:pagecheckerboard="0"
     inkscape:document-units="mm"
     showgrid="false"
     inkscape:zoom="1.3504346"
     inkscape:cx="-41.097882"
     inkscape:cy="154.39475"
     inkscape:window-width="1312"
     inkscape:window-height="905"
     inkscape:window-x="2068"
     inkscape:window-y="219"
     inkscape:window-maximized="0"
     inkscape:current-layer="layer1" />
  <defs
     id="defs951" />
  <g
     inkscape:label="Layer 1"
     inkscape:groupmode="layer"
     id="layer1"
     transform="translate(-78.718599,-80.479978)">
    <path
       d="m 81.44644,88.653339 c 0.887201,0.34081 1.864413,0.381794 2.77786,0.116444 0.913448,-0.265325 1.711299,-0.821876 2.267982,-1.582103 0.556683,-0.760227 0.840608,-1.680924 0.807085,-2.617258 -0.03352,-0.936334 -0.382587,-1.835132 -0.99224,-2.554946 -0.03799,-0.04652 -0.08504,-0.08513 -0.138351,-0.113575 -0.05334,-0.02844 -0.111892,-0.04615 -0.172244,-0.05209 -0.06038,-0.0059 -0.121338,1.3e-5 -0.179334,0.0175 -0.058,0.01749 -0.111866,0.04618 -0.158486,0.08438 -0.04659,0.0382 -0.08501,0.08515 -0.11295,0.13811 -0.02797,0.05296 -0.04493,0.110868 -0.04987,0.170344 -0.0049,0.05947 0.0022,0.119324 0.02101,0.176054 0.01881,0.05673 0.04895,0.109206 0.08861,0.15436 0.481859,0.568333 0.757184,1.278607 0.782293,2.01825 0.02514,0.739643 -0.201374,1.4664 -0.643625,2.065099 -0.442251,0.598726 -1.074949,1.03513 -1.797844,1.240129 -0.722895,0.204972 -1.494684,0.16682 -2.193025,-0.108453 -0.698371,-0.275272 -1.283383,-0.771922 -1.662359,-1.411235 -0.378978,-0.639312 -0.530249,-1.384749 -0.429847,-2.118174 0.100404,-0.733452 0.446738,-1.412978 0.984133,-1.930908 0.537396,-0.51793 1.235126,-0.844651 1.982626,-0.928399 0.11774,-0.01653 0.224288,-0.0776 0.296995,-0.170212 0.07268,-0.09262 0.105754,-0.209476 0.09221,-0.325718 -0.01355,-0.116245 -0.07265,-0.222703 -0.164756,-0.29673 -0.09213,-0.07403 -0.209946,-0.109791 -0.328453,-0.09968 -0.775494,0.08653 -1.51225,0.379718 -2.130782,0.847919 -0.618535,0.468201 -1.095368,1.09365 -1.379059,1.808877 -0.415051,1.042934 -0.391953,2.205328 0.06421,3.231515 0.456163,1.026186 1.308031,1.832107 2.368219,2.240491 z"
       fill="#c60000"
       id="path842"
       style="stroke-width:0.264583" />
    <path
       d="m 83.866716,81.66935 c 0.09924,0.09711 0.225531,0.163079 0.362876,0.189561 0.137372,0.02648 0.279638,0.01229 0.408781,-0.04078 0.12917,-0.05307 0.239422,-0.14264 0.316812,-0.257368 0.07742,-0.114729 0.118481,-0.249463 0.118004,-0.387155 -4.76e-4,-0.137691 -0.04246,-0.272153 -0.120623,-0.386368 -0.07818,-0.114215 -0.189045,-0.203054 -0.318558,-0.255272 -0.12954,-0.05222 -0.271886,-0.06547 -0.409073,-0.03808 -0.13716,0.02739 -0.262996,0.09419 -0.361579,0.191953 l -0.0038,0.0037 c -0.06498,0.06476 -0.11639,0.141486 -0.151209,0.225798 -0.03482,0.08431 -0.05241,0.174551 -0.05175,0.265555 6.62e-4,0.091 0.01955,0.180988 0.05562,0.2648 0.03604,0.08381 0.08856,0.159808 0.15449,0.223644 z"
       fill="#c60000"
       id="path844"
       style="stroke-width:0.264583" />
    <path
       d="m 83.745907,82.173067 h 1.308074 v 3.438993 c 0,0.551974 -0.192088,1.012798 -0.568272,1.367975 -0.384149,0.355203 -0.876089,0.536311 -1.467856,0.536311 -0.599307,0 -1.090401,-0.181505 -1.474972,-0.536311 -0.38458,-0.35478 -0.576239,-0.816001 -0.576239,-1.367975 v -0.173699 h 1.300086 v 0.219075 c 0,0.423254 0.307419,0.710406 0.745251,0.710406 0.437833,0 0.737712,-0.288792 0.737712,-0.710406 v -2.351511 z"
       fill="#ffffff"
       id="path846"
       style="stroke-width:0.264583;fill:#000000" />
  </g>
</svg>
