<?xml version="1.0" encoding="UTF-8" standalone="no"?>
<svg
   width="200"
   zoomAndPan="magnify"
   viewBox="0 0 150 150"
   height="200"
   preserveAspectRatio="xMidYMid meet"
   version="1.0"
   id="svg905"
   sodipodi:docname="ezy-swap.svg"
   inkscape:version="1.1.2 (b8e25be8, 2022-02-05)"
   xmlns:inkscape="http://www.inkscape.org/namespaces/inkscape"
   xmlns:sodipodi="http://sodipodi.sourceforge.net/DTD/sodipodi-0.dtd"
   xmlns="http://www.w3.org/2000/svg"
   xmlns:svg="http://www.w3.org/2000/svg">
  <sodipodi:namedview
     id="namedview907"
     pagecolor="#ffffff"
     bordercolor="#666666"
     borderopacity="1.0"
     inkscape:pageshadow="2"
     inkscape:pageopacity="0.0"
     inkscape:pagecheckerboard="0"
     showgrid="false"
     inkscape:zoom="0.86772068"
     inkscape:cx="96.229123"
     inkscape:cy="73.180231"
     inkscape:window-width="1312"
     inkscape:window-height="905"
     inkscape:window-x="2628"
     inkscape:window-y="151"
     inkscape:window-maximized="0"
     inkscape:current-layer="svg905" />
  <defs
     id="defs829">
    <g
       id="g824" />
    <clipPath
       id="3847af467a">
      <path
         d="M 129.11719,132 H 206 v 50 h -76.88281 z m 0,0"
         clip-rule="nonzero"
         id="path826" />
    </clipPath>
  </defs>
  <g
     fill="#001140"
     fill-opacity="1"
     id="g871"
     transform="translate(-114.7503,-132.1263)">
    <g
       transform="translate(169.61294,224.01277)"
       id="g869">
      <g
         id="g867" />
    </g>
  </g>
  <g
     id="g1287"
     transform="translate(-112.1573,-101.87463)">
    <g
       clip-path="url(#3847af467a)"
       id="g839">
      <path
         fill="#022179"
         d="m 171.36719,175.04297 c 0.17968,-0.14453 0.35156,-0.29688 0.52343,-0.44141 l 0.12891,-0.11328 0.14063,-0.12109 0.27343,-0.2461 c 0.20313,-0.17968 0.31641,-0.28906 0.45703,-0.42187 l 0.25391,-0.24219 0.23047,-0.22656 c 0.30859,-0.30469 0.60547,-0.61328 0.89844,-0.92188 0.58203,-0.62109 1.14843,-1.24609 1.67578,-1.875 0.52344,-0.63281 1.03125,-1.26562 1.50781,-1.89843 0.48047,-0.62891 0.94141,-1.26172 1.375,-1.89063 0.875,-1.25781 1.67578,-2.50391 2.41797,-3.72266 0.75,-1.21484 1.44141,-2.41015 2.10937,-3.5664 1.32422,-2.31641 2.53516,-4.49219 3.71875,-6.5 1.1836,-2.00781 2.33204,-3.85547 3.50782,-5.50781 2.33203,-3.31641 4.7539,-5.88672 7.05078,-7.76172 0.57422,-0.46875 1.1289,-0.90235 1.67578,-1.28516 0.26562,-0.19922 0.53516,-0.37891 0.79297,-0.5625 0.25781,-0.17969 0.51562,-0.34375 0.76172,-0.50781 0.49609,-0.3125 0.96484,-0.59766 1.39843,-0.85547 0.21485,-0.13281 0.42969,-0.24609 0.62891,-0.35938 0.19922,-0.11328 0.39453,-0.21875 0.57813,-0.3164 0.36328,-0.19922 0.6875,-0.3711 0.97265,-0.50781 0.28516,-0.14454 0.52344,-0.27344 0.72266,-0.36329 0.39062,-0.1914 0.59375,-0.28906 0.59375,-0.28906 0,0 -0.22656,0.008 -0.66016,0.0273 -0.21875,0.008 -0.49219,0.0273 -0.8125,0.0586 -0.32812,0.0273 -0.69922,0.0664 -1.125,0.12109 -1.6875,0.23047 -4.19922,0.69141 -7.23828,1.96875 -1.51562,0.63282 -3.14844,1.48047 -4.83594,2.5586 -1.6914,1.07812 -3.40625,2.41797 -5.11328,3.96093 -1.69531,1.55079 -3.38281,3.3086 -5.01953,5.21485 -0.82422,0.94922 -1.63281,1.9375 -2.44922,2.9414 -0.80859,1.01172 -1.62109,2.03907 -2.43359,3.07813 -3.25391,4.14453 -6.58203,8.47656 -10.60547,11.66797 l -0.16016,0.125 -0.0781,0.0625 -0.0937,0.0664 c -0.1211,0.0898 -0.24219,0.1836 -0.36719,0.27344 -0.24609,0.17578 -0.49609,0.34766 -0.75,0.51953 -0.51172,0.33203 -1.03125,0.64453 -1.5625,0.9336 -1.0625,0.57812 -2.17578,1.03906 -3.31641,1.39843 -0.57031,0.17579 -1.15234,0.32032 -1.73437,0.4336 -0.58203,0.11328 -1.17188,0.19922 -1.76172,0.24609 -1.18359,0.0977 -2.37109,0.0625 -3.54297,-0.11328 -1.17187,-0.18359 -2.32422,-0.49219 -3.42187,-0.95312 -0.54688,-0.23047 -1.08203,-0.5 -1.60157,-0.79297 -0.51953,-0.29688 -1.02343,-0.62891 -1.5039,-0.99219 -0.47656,-0.37109 -0.94141,-0.76172 -1.38281,-1.19141 -0.21485,-0.21484 -0.4336,-0.43359 -0.63672,-0.66797 l -0.0781,-0.0859 c 0.008,0.008 -0.0664,-0.0781 0.004,0.008 l -0.0508,-0.0625 -0.20703,-0.24609 c -0.0859,-0.11329 -0.13672,-0.17188 -0.23438,-0.30469 -0.71094,-0.94922 -1.30078,-2.01172 -1.74219,-3.16406 -0.8789,-2.30079 -1.13281,-4.96875 -0.73437,-7.55079 0.39453,-2.58203 1.47656,-5.04687 3.05078,-6.92578 1.58594,-1.88281 3.64062,-3.13672 6.02734,-3.66406 1.66407,-0.37109 3.50391,-0.36328 5.40235,-0.0469 0.0508,0.36718 0.12109,0.73828 0.21875,1.10546 1.375,5.31641 6.80468,8.50782 12.1289,7.13672 5.32032,-1.37109 8.52344,-6.78906 7.14844,-12.10547 -1.375,-5.3125 -6.80469,-8.50781 -12.12891,-7.13281 -1.35546,0.34766 -2.57031,0.95703 -3.60937,1.76563 -0.41016,-0.11719 -0.82813,-0.22657 -1.25,-0.32422 -1.02344,-0.24219 -2.07813,-0.42578 -3.15625,-0.54297 -2.15625,-0.23828 -4.42578,-0.21094 -6.6875,0.19922 -2.26563,0.40234 -4.51172,1.19531 -6.55469,2.35156 -2.05078,1.14844 -3.88281,2.65234 -5.42187,4.36719 -1.53907,1.71484 -2.78907,3.63672 -3.74219,5.66797 -0.95313,2.02734 -1.62891,4.16015 -2.02344,6.33593 -0.79297,4.33985 -0.47265,8.88282 1.03125,13.10938 0.75391,2.10937 1.80469,4.13281 3.14063,5.95703 0.15234,0.21484 0.36718,0.49219 0.54687,0.71875 l 0.19922,0.25391 0.29297,0.35156 c 0.34766,0.42578 0.71484,0.83203 1.09375,1.23437 0.75781,0.79688 1.56641,1.55079 2.42578,2.23438 3.42969,2.76172 7.59766,4.51953 11.8125,5.11328 1.05078,0.15234 2.10938,0.23438 3.16016,0.25781 1.05078,0.0156 2.09375,-0.0391 3.12109,-0.14453 2.05859,-0.21094 4.05469,-0.68359 5.93359,-1.34375 1.88282,-0.65625 3.64844,-1.51953 5.27344,-2.51562 0.81641,-0.49219 1.59375,-1.02344 2.33594,-1.58985 0.36719,-0.28125 0.73047,-0.5664 1.08594,-0.85937"
         fill-opacity="1"
         fill-rule="nonzero"
         id="path837" />
    </g>
    <path
       fill="#00adef"
       d="m 244.30078,151.49609 c -0.75391,-2.10937 -1.80469,-4.13281 -3.14062,-5.95703 -0.15235,-0.21094 -0.36719,-0.49219 -0.54688,-0.71875 l -0.19922,-0.2539 -0.29297,-0.35157 c -0.34765,-0.42578 -0.71484,-0.83203 -1.09375,-1.23437 -0.75781,-0.79688 -1.5664,-1.55078 -2.42578,-2.23438 -3.42969,-2.76172 -7.59765,-4.51953 -11.8125,-5.11328 -1.05469,-0.14844 -2.10937,-0.23437 -3.16015,-0.2539 -1.05079,-0.0195 -2.09375,0.0312 -3.1211,0.14062 -2.05859,0.21094 -4.05469,0.68359 -5.93359,1.34375 -1.88281,0.65625 -3.64844,1.51953 -5.27344,2.51563 -0.81641,0.49218 -1.59375,1.02734 -2.33594,1.58984 -0.37109,0.28125 -0.73047,0.56641 -1.08593,0.85937 -0.17969,0.14454 -0.35157,0.29688 -0.52344,0.44532 l -0.12891,0.10937 -0.14062,0.1211 -0.27344,0.24609 c -0.20313,0.17969 -0.31641,0.29297 -0.45703,0.42578 l -0.25391,0.23828 -0.23047,0.23047 c -0.30859,0.30078 -0.60547,0.61328 -0.90234,0.92188 -0.58203,0.61718 -1.14453,1.24218 -1.67188,1.87109 -0.52343,0.63281 -1.03125,1.26562 -1.50781,1.89844 -0.48047,0.6289 -0.9414,1.26172 -1.375,1.89062 -0.875,1.26172 -1.67578,2.50391 -2.41797,3.72266 -0.75,1.21484 -1.4414,2.41015 -2.10937,3.5664 -1.32422,2.31641 -2.53516,4.49219 -3.71875,6.50391 -1.1836,2.00391 -2.33203,3.85156 -3.51172,5.50391 -2.32813,3.3164 -4.75,5.89062 -7.04688,7.76172 -0.57421,0.46875 -1.13281,0.90234 -1.67578,1.28906 -0.26562,0.19531 -0.53515,0.3789 -0.79297,0.5625 -0.25781,0.17578 -0.51562,0.33984 -0.76171,0.5039 -0.4961,0.3125 -0.96485,0.60157 -1.39844,0.85938 -0.21485,0.13281 -0.42969,0.24219 -0.62891,0.35547 -0.20312,0.11328 -0.39453,0.21875 -0.57812,0.3164 -0.36328,0.19922 -0.6875,0.3711 -0.97266,0.51172 -0.28516,0.14453 -0.52344,0.26953 -0.72266,0.35938 -0.39453,0.1914 -0.59375,0.29297 -0.59375,0.29297 0,0 0.22266,-0.0117 0.66016,-0.0312 0.21875,-0.008 0.48828,-0.0234 0.8125,-0.0586 0.32422,-0.0234 0.69922,-0.0664 1.125,-0.12109 1.68359,-0.23047 4.19922,-0.69141 7.23828,-1.96484 1.51563,-0.63672 3.14844,-1.48438 4.83594,-2.5586 1.69141,-1.08203 3.40625,-2.42187 5.10937,-3.96484 1.69922,-1.55078 3.38672,-3.30469 5.02344,-5.21485 0.82422,-0.94531 1.63281,-1.9375 2.44922,-2.9414 0.80859,-1.01172 1.62109,-2.03906 2.43359,-3.07813 3.25391,-4.14453 6.58204,-8.47656 10.60547,-11.66797 l 0.16016,-0.12109 0.0781,-0.0664 0.0898,-0.0664 c 0.125,-0.0898 0.24609,-0.1836 0.37109,-0.26953 0.2461,-0.17969 0.4961,-0.35157 0.75,-0.52344 0.51172,-0.33203 1.03125,-0.64063 1.5625,-0.93359 1.0625,-0.57813 2.17578,-1.03907 3.31641,-1.39454 0.57031,-0.17578 1.15234,-0.32421 1.73437,-0.4375 0.58203,-0.11328 1.17188,-0.19921 1.76172,-0.24609 1.1836,-0.0977 2.375,-0.0625 3.54297,0.11328 1.17188,0.1836 2.32422,0.49219 3.42188,0.95313 0.54687,0.23047 1.08203,0.5 1.60156,0.79297 0.51953,0.29687 1.02344,0.6289 1.5039,0.99218 0.47657,0.3711 0.94141,0.76563 1.38282,1.19141 0.21484,0.21875 0.43359,0.43359 0.63672,0.66797 l 0.0781,0.0859 c -0.008,-0.008 0.0664,0.0781 -0.004,-0.008 l 0.0508,0.0625 0.20703,0.2461 c 0.0859,0.11328 0.13281,0.17187 0.23437,0.30468 0.71094,0.94922 1.30078,2.01172 1.73828,3.16407 0.88282,2.30078 1.13672,4.96875 0.73438,7.55078 -0.39063,2.58203 -1.47266,5.04687 -3.04688,6.92578 -1.58593,1.88281 -3.64062,3.14062 -6.02734,3.66406 -1.66406,0.3711 -3.50391,0.36328 -5.40234,0.0469 -0.0508,-0.36719 -0.1211,-0.73828 -0.21875,-1.10547 -1.375,-5.3125 -6.80469,-8.50781 -12.12891,-7.13672 -5.32031,1.37109 -8.52344,6.79297 -7.14844,12.10547 1.375,5.3125 6.80469,8.50781 12.12891,7.13672 1.35156,-0.35157 2.57031,-0.96094 3.60937,-1.76563 0.41016,0.11328 0.82813,0.22266 1.25,0.32031 1.02344,0.24219 2.07813,0.42969 3.15625,0.54297 2.15625,0.24219 4.42578,0.21094 6.6875,-0.19922 2.26563,-0.40234 4.51172,-1.19531 6.55469,-2.35156 2.04688,-1.14844 3.88281,-2.65234 5.42188,-4.36719 1.53906,-1.71484 2.78906,-3.63671 3.74218,-5.66796 0.95703,-2.02735 1.62891,-4.16016 2.01953,-6.33204 0.79688,-4.34375 0.47657,-8.88671 -1.02734,-13.11328"
       fill-opacity="1"
       fill-rule="nonzero"
       id="path841" />
    <g
       fill="#001140"
       fill-opacity="1"
       id="g849">
      <g
         transform="translate(113.09405,224.01277)"
         id="g847">
        <g
           id="g845">
          <path
             d="M 1.65625,0 V -19.0625 H 14.5 v 3.328125 H 5.6875 v 4.546875 h 8.15625 V -7.875 H 5.6875 v 4.546875 h 8.84375 V 0 Z m 0,0"
             id="path843" />
        </g>
      </g>
    </g>
    <g
       fill="#001140"
       fill-opacity="1"
       id="g857">
      <g
         transform="translate(130.48208,224.01277)"
         id="g855">
        <g
           id="g853">
          <path
             d="m 1.453125,0 v -2.390625 l 9.515625,-13.34375 H 1.4375 V -19.0625 h 14.578125 v 2.390625 L 6.5,-3.328125 h 9.546875 V 0 Z m 0,0"
             id="path851" />
        </g>
      </g>
    </g>
    <g
       fill="#001140"
       fill-opacity="1"
       id="g865">
      <g
         transform="translate(149.2938,224.01277)"
         id="g863">
        <g
           id="g861">
          <path
             d="m 0.546875,-19.0625 h 4.5 l 4.34375,8.21875 h 0.1875 l 4.34375,-8.21875 H 18.4375 L 11.484375,-6.734375 V 0 h -4 v -6.734375 z m 0,0"
             id="path859" />
        </g>
      </g>
    </g>
    <g
       fill="#001140"
       fill-opacity="1"
       id="g879">
      <g
         transform="translate(177.02588,224.01277)"
         id="g877">
        <g
           id="g875">
          <path
             d="m 12,-13.578125 c -0.08594,-0.75 -0.414062,-1.332031 -0.984375,-1.75 -0.5625,-0.414063 -1.324219,-0.625 -2.28125,-0.625 -0.980469,0 -1.734375,0.203125 -2.265625,0.609375 -0.53125,0.40625 -0.796875,0.917969 -0.796875,1.53125 -0.011719,0.679688 0.28125,1.195312 0.875,1.546875 0.601563,0.34375 1.316406,0.617187 2.140625,0.8125 l 1.71875,0.40625 c 1.101562,0.25 2.082031,0.609375 2.9375,1.078125 0.863281,0.46875 1.539062,1.078125 2.03125,1.828125 0.488281,0.742187 0.734375,1.640625 0.734375,2.703125 0,1.742188 -0.652344,3.125 -1.953125,4.15625 -1.304688,1.03125 -3.117188,1.546875 -5.4375,1.546875 -2.3125,0 -4.164062,-0.523437 -5.546875,-1.578125 -1.375,-1.050781 -2.085937,-2.609375 -2.125,-4.671875 H 4.9375 c 0.070312,0.960937 0.445312,1.679687 1.125,2.15625 0.6875,0.480469 1.554688,0.71875 2.609375,0.71875 1.019531,0 1.835937,-0.210937 2.453125,-0.640625 0.613281,-0.4375 0.921875,-1.003906 0.921875,-1.703125 0,-0.644531 -0.28125,-1.140625 -0.84375,-1.484375 C 10.640625,-7.289062 9.84375,-7.585938 8.8125,-7.828125 l -2.078125,-0.53125 c -1.605469,-0.382813 -2.875,-0.992187 -3.8125,-1.828125 -0.929687,-0.832031 -1.386719,-1.953125 -1.375,-3.359375 -0.011719,-1.15625 0.296875,-2.164063 0.921875,-3.03125 0.625,-0.863281 1.484375,-1.535156 2.578125,-2.015625 1.09375,-0.476562 2.332031,-0.71875 3.71875,-0.71875 1.414063,0 2.648437,0.246094 3.703125,0.734375 1.0625,0.480469 1.882812,1.152344 2.46875,2.015625 0.59375,0.855469 0.898438,1.851562 0.921875,2.984375 z m 0,0"
             id="path873" />
        </g>
      </g>
    </g>
    <g
       fill="#001140"
       fill-opacity="1"
       id="g887">
      <g
         transform="translate(195.52121,224.01277)"
         id="g885">
        <g
           id="g883">
          <path
             d="M 5.953125,0 0.5,-19.0625 h 4.390625 l 3.15625,13.25 h 0.15625 l 3.484375,-13.25 h 3.765625 l 3.46875,13.28125 H 19.09375 L 22.25,-19.0625 h 4.40625 L 21.203125,0 h -3.9375 l -3.625,-12.453125 H 13.5 L 9.875,0 Z m 0,0"
             id="path881" />
        </g>
      </g>
    </g>
    <g
       fill="#001140"
       fill-opacity="1"
       id="g895">
      <g
         transform="translate(224.00093,224.01277)"
         id="g893">
        <g
           id="g891">
          <path
             d="M 4.9375,0 H 0.625 l 6.578125,-19.0625 h 5.1875 L 18.96875,0 h -4.328125 l -1.40625,-4.34375 h -6.875 z M 7.375,-7.484375 h 4.84375 L 9.875,-14.703125 H 9.71875 Z m 0,0"
             id="path889" />
        </g>
      </g>
    </g>
    <g
       fill="#001140"
       fill-opacity="1"
       id="g903">
      <g
         transform="translate(244.93421,224.01277)"
         id="g901">
        <g
           id="g899">
          <path
             d="m 1.65625,0 v -19.0625 h 7.515625 c 1.445313,0 2.675781,0.277344 3.6875,0.828125 1.019531,0.554687 1.796875,1.3125 2.328125,2.28125 0.539062,0.96875 0.8125,2.089844 0.8125,3.359375 0,1.261719 -0.277344,2.375 -0.828125,3.34375 -0.542969,0.960938 -1.328125,1.714844 -2.359375,2.265625 -1.03125,0.542969 -2.277344,0.8125 -3.734375,0.8125 H 5.6875 V 0 Z M 5.6875,-9.40625 h 2.734375 c 1.15625,0 2.015625,-0.296875 2.578125,-0.890625 0.570312,-0.59375 0.859375,-1.359375 0.859375,-2.296875 0,-0.945312 -0.289063,-1.710938 -0.859375,-2.296875 -0.5625,-0.582031 -1.429688,-0.875 -2.59375,-0.875 H 5.6875 Z m 0,0"
             id="path897" />
        </g>
      </g>
    </g>
  </g>
</svg>
