<?xml version="1.0" encoding="UTF-8" standalone="no"?>
<svg
   width="1000"
   zoomAndPan="magnify"
   viewBox="0 0 750.00001 749.99997"
   height="1000"
   preserveAspectRatio="xMidYMid meet"
   version="1.0"
   id="svg12798"
   sodipodi:docname="dogx-4.svg"
   inkscape:version="1.1.2 (b8e25be8, 2022-02-05)"
   xmlns:inkscape="http://www.inkscape.org/namespaces/inkscape"
   xmlns:sodipodi="http://sodipodi.sourceforge.net/DTD/sodipodi-0.dtd"
   xmlns="http://www.w3.org/2000/svg"
   xmlns:svg="http://www.w3.org/2000/svg">
  <sodipodi:namedview
     id="namedview12800"
     pagecolor="#ffffff"
     bordercolor="#666666"
     borderopacity="1.0"
     inkscape:pageshadow="2"
     inkscape:pageopacity="0.0"
     inkscape:pagecheckerboard="0"
     showgrid="false"
     inkscape:zoom="0.61580177"
     inkscape:cx="297.9855"
     inkscape:cy="487.98171"
     inkscape:window-width="1296"
     inkscape:window-height="905"
     inkscape:window-x="2644"
     inkscape:window-y="120"
     inkscape:window-maximized="0"
     inkscape:current-layer="svg12798" />
  <defs
     id="defs12634">
    <filter
       x="0"
       y="0"
       width="1"
       height="1"
       id="4253bae641">
      <feColorMatrix
         values="0 0 0 0 1 0 0 0 0 1 0 0 0 0 1 0 0 0 1 0"
         color-interpolation-filters="sRGB"
         id="feColorMatrix12597" />
    </filter>
    <mask
       id="5ceb828276">
      <g
         filter="url(#4253bae641)"
         id="g12602">
        <rect
           x="-37.5"
           width="450"
           fill="#000000"
           y="-37.5"
           height="450"
           fill-opacity="0.6"
           id="rect12600" />
      </g>
    </mask>
    <clipPath
       id="48f4b9f455">
      <path
         d="m 102,24 h 52.35937 V 64 H 102 Z m 0,0"
         clip-rule="nonzero"
         id="path12605" />
    </clipPath>
    <clipPath
       id="b3d502c994">
      <path
         d="m 90,0.71875 h 27 V 27 H 90 Z m 0,0"
         clip-rule="nonzero"
         id="path12608" />
    </clipPath>
    <clipPath
       id="55fc7e3d72">
      <path
         d="m 77,86 h 26 v 26.07813 H 77 Z m 0,0"
         clip-rule="nonzero"
         id="path12611" />
    </clipPath>
    <clipPath
       id="3d64f05082">
      <rect
         x="0"
         width="155"
         y="0"
         height="113"
         id="rect12614" />
    </clipPath>
    <clipPath
       id="ba47077d13">
      <path
         d="m 220,119 h 57.75781 v 64 H 220 Z m 0,0"
         clip-rule="nonzero"
         id="path12617" />
    </clipPath>
    <mask
       id="85767ba833">
      <g
         filter="url(#4253bae641)"
         id="g12622">
        <rect
           x="-37.5"
           width="450"
           fill="#000000"
           y="-37.5"
           height="450"
           fill-opacity="0.298"
           id="rect12620" />
      </g>
    </mask>
    <clipPath
       id="20f943c200">
      <path
         d="M 2,27 H 73 V 86.761719 H 2 Z m 0,0"
         clip-rule="nonzero"
         id="path12625" />
    </clipPath>
    <clipPath
       id="6551538620">
      <path
         d="M 0.28125,0.121094 H 9 V 28 H 0.28125 Z m 0,0"
         clip-rule="nonzero"
         id="path12628" />
    </clipPath>
    <clipPath
       id="b444c08e16">
      <rect
         x="0"
         width="73"
         y="0"
         height="87"
         id="rect12631" />
    </clipPath>
  </defs>
  <g
     id="g13204"
     transform="matrix(4.1234941,0,0,4.066481,-405.37058,-271.78383)">
    <path
       fill="#ffffff"
       d="m 261.58203,163.55078 c -2.03906,-6.875 2.02734,-7.75 5.34375,-7.44531 -8.97266,-4.55078 -11.55078,-10.02344 -16.08203,-17.03906 -0.0586,-0.0859 -0.12109,-0.17969 -0.17188,-0.26954 1.90235,8.03907 3.66016,19.96875 -1.73046,21.2461 -9.12891,2.17578 -13.375,-6.51563 -22.95704,-2.27344 -8.46093,3.74609 -15.97265,13.45703 -12.72656,28.05078 0.0195,0.004 0.0391,0.0195 0.0586,0.0273 0.72265,0.33593 1.45312,0.65234 2.20312,0.95312 8.37891,3.36719 15.35938,4.30078 21.05469,3.93359 0.70703,-0.0469 1.39453,-0.11718 2.0664,-0.19531 0,0 0.008,0 0.0156,0 9.61719,-1.55078 16.91406,-7.14453 18.75781,-9.21094 5.39844,-0.91406 13.09375,-6.01171 16.70313,-11.42187 -4.16797,0.82812 -10.42969,0.73828 -12.53516,-6.35547 z M 247.75,180.0625 c 0.0781,0.56641 -0.0195,1.05859 -0.34375,1.41406 -2.96094,3.25781 -16.98438,4.65235 -18.66797,-1.32031 -1.38672,-4.89844 4.71094,-1.46094 8.74609,-6.35156 -0.4375,-0.5625 -0.64843,-0.91797 -0.64843,-0.91797 -2.07032,-5.62891 4.73828,-9.47656 4.73828,-9.47656 0,0 3.42969,13.05078 10.27344,16.96875 -1.48047,0.0469 -2.84766,-0.0742 -4.09766,-0.31641 z m 0,0"
       fill-opacity="1"
       fill-rule="nonzero"
       id="path12642" />
    <path
       fill="#102770"
       d="m 251.85547,180.37891 c -1.48047,0.0469 -2.84766,-0.0742 -4.10547,-0.31641 -0.23828,-1.67578 -2.00781,-4.03125 -4.10156,-5.60156 -2.17969,-1.64063 -4.70313,-2.42188 -6.16016,-0.65625 -0.4375,-0.5625 -0.64453,-0.91797 -0.64453,-0.91797 -2.07422,-5.62891 4.73828,-9.47656 4.73828,-9.47656 0,0 3.42578,13.04687 10.27344,16.96875 z m 0,0"
       fill-opacity="1"
       fill-rule="nonzero"
       id="path12644" />
    <path
       fill="#f99b28"
       d="m 250.66406,138.79687 c -1.3789,-2.12109 -2.94922,-4.38281 -4.93359,-6.79687 -2.77344,-3.38672 -5.98438,-5.73047 -9.13672,-7.34375 -7.05469,-3.63672 -13.82031,-3.63672 -14.75391,-3.625 -3.23828,-3.53906 -7.3164,-7.05469 -11.59375,-9.95312 -8.43359,-5.72266 -17.6289,-9.07422 -22.58203,-5.58985 -6.88281,4.83985 0.27344,19.1875 4.72266,26.69922 -3.15625,3.49219 -4.86719,8.07812 -5.23438,13.13281 -1.05078,14.27344 8.51953,32.33203 26.08985,40.50391 -3.24219,-14.59375 4.26953,-24.30078 12.73047,-28.05078 9.57812,-4.2461 13.82812,4.44531 22.95312,2.27734 5.39844,-1.28516 3.64453,-13.20703 1.73828,-21.25391 z m 0,0"
       fill-opacity="1"
       fill-rule="nonzero"
       id="path12646" />
    <path
       fill="#102770"
       d="m 274.10937,169.90625 c -4.16015,0.82812 -10.42187,0.73828 -12.53515,-6.35547 -2.03906,-6.875 2.02734,-7.75 5.34765,-7.44531 1.1211,0.57031 2.34766,1.125 3.6875,1.66797 6.69922,2.69922 6.57032,7.53515 3.5,12.13281 z m 0,0"
       fill-opacity="1"
       fill-rule="nonzero"
       id="path12648" />
    <path
       fill="#f99b28"
       d="m 236.59375,124.65625 c -7.05469,-3.63672 -13.82031,-3.63672 -14.75391,-3.625 -3.23828,-3.53906 -7.3164,-7.05469 -11.59375,-9.95312 -0.0742,-0.25 -3.52734,-11.773442 3.78516,-14.035161 10.07031,-3.113281 22.5625,27.613281 22.5625,27.613281 z m 0,0"
       fill-opacity="1"
       fill-rule="nonzero"
       id="path12650" />
    <path
       fill="#ffffff"
       d="m 221.8125,206.26172 c -1.34766,3.69531 -7.4375,2.39844 -13.64453,-0.10547 -0.24219,-0.0937 -0.48047,-0.19531 -0.71485,-0.29688 -0.98046,-0.40234 -1.96484,-0.83984 -2.92578,-1.28515 -1.82031,-2.6211 -2.04687,-5.29688 -0.3164,-7.92969 2.125,-3.22656 4.73047,-4.06641 7.05468,-3.94531 0.54297,0.0273 1.0625,0.10547 1.56641,0.22265 5.47266,4.28516 10.40234,9.44532 8.98047,13.33985 z m 0,0"
       fill-opacity="1"
       fill-rule="nonzero"
       id="path12652" />
    <path
       fill="#ffffff"
       d="m 251.45703,201.32812 c -0.58984,2.56641 -6.01172,2.96094 -11.28125,2.71875 -1.07031,-1.53515 -1.66797,-3.66015 -1.05859,-6.58203 0.51953,-2.49609 3.01172,-3.71093 5.55468,-4.28906 3.66797,2.32813 7.41407,5.44141 6.78516,8.15234 z m 0,0"
       fill-opacity="1"
       fill-rule="nonzero"
       id="path12654" />
    <path
       fill="#ffffff"
       d="m 123.96875,182.5625 c -0.0195,4.46094 -1.17969,13.3125 -6.17187,18.34766 -0.0195,-0.0117 -0.0352,-0.0273 -0.0469,-0.0469 0,0 -8.88672,5.21094 -14.81641,0 -5.925778,-5.21094 14.21485,-23.43359 20.9336,-17.10937 0,-0.008 0,-0.47266 0.10156,-1.19141 z m 0,0"
       fill-opacity="1"
       fill-rule="nonzero"
       id="path12656" />
    <path
       fill="#ffffff"
       d="m 207.45312,205.86719 c -0.34765,0.29687 -0.70703,0.57812 -1.07031,0.85937 -15.72265,12.00391 -45.40234,10.59766 -64.09765,-0.14844 2.10156,-0.85937 4.01953,-1.95703 5.71484,-3.10937 8.83203,-1.46094 32.39844,-4.60547 52.69531,-0.76563 1.20313,0.61719 2.4961,1.25782 3.83203,1.87891 0.96094,0.44141 1.94532,0.87891 2.92578,1.28516 z m 0,0"
       fill-opacity="1"
       fill-rule="nonzero"
       id="path12658" />
    <path
       fill="#f99b28"
       d="m 212.83984,192.92187 c -0.5,-0.11718 -1.02343,-0.19531 -1.57031,-0.22265 -2.32031,-0.1211 -4.93359,0.71875 -7.05469,3.94531 -1.73047,2.625 -1.5,5.30859 0.31641,7.92969 -1.33203,-0.6211 -2.625,-1.25781 -3.82813,-1.87891 -20.30468,-3.83203 -43.86328,-0.6875 -52.69531,0.76563 -1.69531,1.15234 -3.61719,2.25 -5.71484,3.11328 -6.89453,2.83984 -15.69141,3.1289 -24.48438,-5.66797 4.9961,-5.03125 6.15235,-13.89063 6.17188,-18.35156 0.17578,-1.30078 0.66797,-3.4336 2.05469,-5.19141 0.58593,-2.98828 1.32422,-5.63281 2.20312,-7.98437 1.81641,-4.8711 4.20703,-8.45313 6.95313,-11.06641 11.26171,-10.69531 28.51562,-4.98828 36.78125,-4.98828 11.2539,0 12.63281,-2.07813 12.63281,-2.07813 -1.26953,6.8125 0.76953,19.36719 21.5625,36.92188 0,0 0.008,0 0.008,0.008 2.03125,1.33984 4.38672,2.96875 6.66406,4.74609 z m 0,0"
       fill-opacity="1"
       fill-rule="nonzero"
       id="path12660" />
    <path
       fill="#f99b28"
       d="m 239.11328,197.45703 c -0.61328,2.92188 -0.0156,5.04297 1.05469,6.58594 -2.3086,-0.10938 -4.59766,-0.33985 -6.4336,-0.56641 1.56641,-3.10547 2.61329,-7.73437 2.83204,-12.73828 0.70703,-0.0469 1.39453,-0.11328 2.0664,-0.19531 0,0 0.008,0 0.0156,0 0.37109,-0.0469 0.72656,-0.0977 1.08203,-0.15235 1.24609,0.625 3.08594,1.60938 4.9414,2.78516 -2.55078,0.57422 -5.03515,1.78516 -5.55859,4.28125 z m 0,0"
       fill-opacity="1"
       fill-rule="nonzero"
       id="path12662" />
    <path
       fill="#ec1c24"
       d="m 236.56641,190.73828 c -0.21875,5.01172 -1.26563,9.64063 -2.83204,12.73828 -7.34375,14.55469 -26.22656,11.17969 -26.22656,11.17969 -5.26562,-2.59766 -3.5664,-4.96094 -0.62109,-7.45703 0.40625,-0.34375 0.84375,-0.69531 1.28125,-1.04297 6.20703,2.49609 12.29297,3.80078 13.64453,0.10547 1.42187,-3.89453 -3.5,-9.05469 -8.97266,-13.33985 -2.26953,-1.77734 -4.625,-3.40625 -6.67187,-4.73437 l -0.008,-0.004 c -20.79297,-17.5664 -22.83204,-30.11328 -21.5586,-36.92578 0.0391,-0.22265 0.0859,-0.4375 0.13281,-0.64453 0.49219,-2.13672 1.28516,-3.64453 1.83204,-4.48437 0.32421,-0.5 0.55078,-0.76563 0.58984,-0.8086 -1.04688,14.27344 8.52344,32.33203 26.09375,40.50391 0.0195,0.008 0.0391,0.0234 0.0586,0.0273 0.72266,0.33594 1.45703,0.65235 2.20313,0.95703 8.3789,3.36719 15.35937,4.3086 21.05469,3.92969 z m 0,0"
       fill-opacity="1"
       fill-rule="nonzero"
       id="path12664" />
    <path
       fill="#ffffff"
       d="m 229.78125,208.01172 c -0.1875,-0.1211 -0.38281,-0.22656 -0.55859,-0.36719 -0.2461,-0.21094 -0.52344,-0.3125 -0.84766,-0.28906 -0.46875,0.0195 -0.90234,-0.10938 -1.23828,-0.45313 -0.5586,-0.57031 -0.48438,-1.48828 0.16797,-2.09375 0.16797,-0.15625 0.35547,-0.27734 0.54687,-0.37109 0.375,-0.19531 0.72656,-0.44141 1.04297,-0.75391 0.42969,-0.41797 0.89453,-0.55078 1.37891,-0.36718 0.48437,0.17968 0.76953,0.58203 0.8164,1.1914 0.0312,0.42188 0.13282,0.80469 0.32813,1.14844 0.16797,0.28906 0.25,0.63281 0.23437,1.01562 -0.0273,0.66016 -0.41406,1.19922 -0.98047,1.36329 -0.28906,0.0781 -0.58593,0.0742 -0.89062,-0.0352 0.0156,-0.008 0.008,0 0,0.0117 z m 0,0"
       fill-opacity="1"
       fill-rule="nonzero"
       id="path12666" />
    <path
       fill="#ffffff"
       d="m 230.94531,200.55469 c -0.10547,0.34375 -0.24219,0.67187 -0.47656,0.9375 -0.12109,0.13281 -0.26172,0.26562 -0.41797,0.35547 -0.49609,0.28906 -0.98047,0.0469 -1.10937,-0.5586 -0.11329,-0.54687 -0.0195,-1.08594 0.3164,-1.57031 0.30078,-0.44141 0.69141,-0.75391 1.14453,-0.93359 0.11328,-0.0469 0.24219,-0.0664 0.35547,-0.0742 0.23438,-0.0156 0.38281,0.13281 0.42578,0.40234 0.0391,0.27734 -0.008,0.55469 -0.0664,0.83594 -0.0547,0.19531 -0.11719,0.39844 -0.17188,0.60547 z m 0,0"
       fill-opacity="1"
       fill-rule="nonzero"
       id="path12668" />
    <path
       fill="#ffffff"
       d="m 231.41016,200.71484 c 0.15625,-0.3164 0.3125,-0.63672 0.48046,-0.94922 0.0742,-0.13281 0.17969,-0.24609 0.28907,-0.34765 0.17578,-0.16406 0.34765,-0.16797 0.51562,-0.0469 0.20313,0.14063 0.32422,0.36719 0.41406,0.625 0.16016,0.4375 0.23438,0.90235 0.125,1.40625 -0.11328,0.51953 -0.375,0.94922 -0.80078,1.21875 -0.52343,0.34375 -1.04297,0.0937 -1.17578,-0.55078 -0.0703,-0.32422 -0.043,-0.65234 0.0508,-0.99219 0.0352,-0.12109 0.082,-0.23437 0.125,-0.34765 -0.008,-0.008 -0.0156,-0.008 -0.0234,-0.0156 z m 0,0"
       fill-opacity="1"
       fill-rule="nonzero"
       id="path12670" />
    <path
       fill="#ffffff"
       d="m 233.96875,204.28516 c -0.21484,0.61718 -0.57031,1.02343 -1.09766,1.17578 -0.57812,0.17578 -0.98047,-0.28125 -0.86718,-0.96094 0.0469,-0.26953 0.14062,-0.52734 0.29687,-0.74219 0.26172,-0.37109 0.56641,-0.69922 0.92969,-0.92969 0.0977,-0.0664 0.20703,-0.11328 0.3164,-0.14062 0.21485,-0.0547 0.375,0.043 0.46485,0.26172 0.12109,0.3164 0.0977,0.66015 0.0391,1.01172 -0.0195,0.10937 -0.0547,0.23047 -0.082,0.32422 z m 0,0"
       fill-opacity="1"
       fill-rule="nonzero"
       id="path12672" />
    <path
       fill="#ffffff"
       d="m 228.28906,202.90234 c -0.0898,0.15625 -0.16797,0.31641 -0.27734,0.45313 -0.3086,0.39844 -0.76172,0.44531 -1.0625,0.12109 -0.36328,-0.39844 -0.45313,-1.07812 -0.21485,-1.69531 0.125,-0.33203 0.29297,-0.62891 0.53125,-0.875 0.0742,-0.0742 0.15235,-0.14453 0.23438,-0.19531 0.23047,-0.14844 0.42969,-0.11719 0.57812,0.0937 0.043,0.0586 0.082,0.12109 0.10938,0.1875 0.17969,0.5039 0.23437,1.04297 0.14844,1.62109 -0.0156,0.0937 -0.0469,0.18359 -0.0664,0.26953 0.0117,0.008 0.0195,0.0156 0.0195,0.0195 z m 0,0"
       fill-opacity="1"
       fill-rule="nonzero"
       id="path12674" />
    <path
       fill="#2875f9"
       d="m 186.56641,146.12891 c -0.54688,0.83984 -1.34766,2.34765 -1.83204,4.48437 -1.02343,0.94141 -2.38281,1.51172 -3.8789,1.51172 -0.53516,0 -1.05469,-0.0703 -1.54688,-0.21484 -2.41015,-0.67188 -4.17968,-2.88672 -4.17968,-5.51172 0,-2.65235 1.80468,-4.87891 4.24609,-5.53516 0.47266,-0.12109 0.96484,-0.19531 1.47656,-0.19531 3.07031,0.0156 5.57422,2.42578 5.71485,5.46094 z m 0,0"
       fill-opacity="1"
       fill-rule="nonzero"
       id="path12676" />
    <path
       fill="#ec1c24"
       d="m 179.30078,151.91797 c -12.04297,1.83203 -32.71484,1.43359 -49.62891,-17.46094 -8.82031,-9.85547 -15.48437,-5.42187 -17.55859,-10.38672 -2.71875,-6.52343 16.14844,-14.14453 22.8125,-4.96093 1.84766,2.54296 4.02734,4.8789 6.20703,6.93359 -2.64453,-8.29688 0.61328,-14.34766 0.61328,-14.34766 6.96094,-15.999998 11.40235,8.14453 20.29688,17.63281 6.21094,6.62891 13.50781,10.07032 17.33984,11.53516 -2.44922,0.64844 -4.24609,2.88281 -4.24609,5.53516 -0.008,2.63281 1.7539,4.84765 4.16406,5.51953 z m 0,0"
       fill-opacity="1"
       fill-rule="nonzero"
       id="path12678" />
    <path
       fill="#f99b28"
       d="m 135.17578,158.32031 c -2.74609,2.60547 -5.13672,6.1875 -6.95312,11.06641 -4.75782,-4.80078 -7.37891,-18.1836 -0.84766,-22.53125 4.33594,-2.89453 2.23437,9.10937 7.80078,11.46484 z m 0,0"
       fill-opacity="1"
       fill-rule="nonzero"
       id="path12680" />
    <path
       fill="#f02f84"
       d="m 247.41406,181.47656 c -2.96484,3.25781 -16.98437,4.65235 -18.66797,-1.32031 -1.38672,-4.89844 4.71094,-1.46094 8.74219,-6.35156 1.46094,-1.75782 3.98828,-0.98438 6.16016,0.65625 2.08593,1.57031 3.86328,3.92578 4.10156,5.60156 0.0781,0.56641 -0.0156,1.05859 -0.33594,1.41406 z m 0,0"
       fill-opacity="1"
       fill-rule="nonzero"
       id="path12682" />
    <g
       mask="url(#5ceb828276)"
       id="g12716">
      <g
         transform="translate(119,96)"
         id="g12714">
        <g
           clip-path="url(#3d64f05082)"
           id="g12712">
          <g
             clip-path="url(#48f4b9f455)"
             id="g12686">
            <path
               fill="#ffffff"
               d="M 154.31641,63.15625 C 140.14062,59.390625 134.45703,52.875 126.85156,40.820312 120.63672,30.976562 110.33984,27.996094 104.67578,27.09375 c -0.57031,-0.707031 -1.18359,-1.421875 -1.82812,-2.128906 0.93359,-0.01953 7.6914,-0.01172 14.7539,3.621094 0.12891,0.07031 0.25391,0.136718 0.38282,0.203124 3.03125,1.609376 6.08593,3.898438 8.75,7.144532 2.07031,2.523437 3.68359,4.871094 5.10937,7.074218 4.53906,7.007813 7.11719,12.484376 16.08203,17.035157 1.125,0.574219 2.35156,1.125 3.69141,1.671875 1.07031,0.429687 1.96484,0.914062 2.69922,1.441406 z m 0,0"
               fill-opacity="1"
               fill-rule="nonzero"
               id="path12684" />
          </g>
          <path
             fill="#ffffff"
             d="M 70.769531,64.859375 C 68.695312,59.582031 67.789062,54.1875 68.152344,49.253906 c 0.367187,-5.054687 2.078125,-9.640625 5.234375,-13.132812 1.058593,1.78125 1.960937,3.183594 2.484375,3.976562 -3.261719,3.035156 -7.550782,9.976563 -5.101563,24.761719 z m 0,0"
             fill-opacity="1"
             fill-rule="nonzero"
             id="path12688" />
          <path
             fill="#ffffff"
             d="m 104.67578,27.101562 c -0.71094,-0.117187 -1.34375,-0.195312 -1.89062,-0.25 -8.136722,-7.78125 -14.734379,-12.015624 -20.031254,-14.0625 -0.976562,-0.492187 -1.921875,-0.816406 -2.800781,-0.921874 -7.378906,-1.972657 -11.800781,0.589843 -14.089844,2.800781 0.214844,-2.183594 1.054688,-4.027344 2.800781,-5.246094 4.945313,-3.480469 14.140626,-0.132813 22.582032,5.585937 4.28125,2.902344 8.363281,6.417969 11.601566,9.964844 0.64453,0.714844 1.25781,1.421875 1.82812,2.128906 z m 0,0"
             fill-opacity="1"
             fill-rule="nonzero"
             id="path12690" />
          <g
             clip-path="url(#b3d502c994)"
             id="g12694">
            <path
               fill="#ffffff"
               d="M 116.82813,26.789062 C 101.26953,0.078125 93.628906,3.269531 90.417969,7.699219 90.65625,4.832031 91.773438,1.984375 95.03125,0.972656 c 8.58984,-2.644531 18.92969,19.28125 21.79688,25.816406 z m 0,0"
               fill-opacity="1"
               fill-rule="nonzero"
               id="path12692" />
          </g>
          <path
             fill="#ffffff"
             d="m 64.410156,59.574219 c -2.203125,0.492187 -5.8125,0.839843 -11.601562,0.417969 -9.28125,-0.679688 -22.457032,-2.1875 -30.621094,-1.792969 10.710938,-4.914063 23.871094,-0.933594 30.777344,-0.933594 8.144531,0 11.121094,-1.089844 12.144531,-1.691406 0.160156,1.199219 0.0078,2.539062 -0.699219,4 z m 0,0"
             fill-opacity="1"
             fill-rule="nonzero"
             id="path12696" />
          <path
             fill="#ffffff"
             d="m 132.45703,105.26172 c -0.19531,0.83594 -0.88672,1.43359 -1.92969,1.85937 -1.38672,-4.71484 -7.32031,-8.019528 -11.11328,-9.695309 -0.74218,-0.324219 -1.39453,-0.59375 -1.92187,-0.792969 -0.0195,0.292969 -0.0469,0.578126 -0.0742,0.867188 -24.675782,0.578125 -35.582032,-12.414062 -40.132814,-21.273438 4.296875,5.515626 10.023438,10.320313 17.019532,13.558594 0.71875,0.335938 1.453124,0.652344 2.199218,0.957032 9.996094,4.011718 18.007814,4.578124 24.222654,3.574218 1.24219,0.625 3.08203,1.609375 4.9375,2.785156 3.67578,2.335938 7.42188,5.445318 6.79297,8.160158 z m 0,0"
             fill-opacity="1"
             fill-rule="nonzero"
             id="path12698" />
          <path
             fill="#ffffff"
             d="m 67.566406,50.0625 c -0.546875,0.839844 -1.347656,2.347656 -1.832031,4.480469 -0.222656,0.203125 -0.457031,0.390625 -0.714844,0.5625 0.277344,-4.121094 0.679688,-5.765625 -1.910156,-7.304688 -4,-2.382812 -5.089844,0.234375 -6.1875,-0.371093 C 41.089844,38.707031 36.828125,30.632812 31.28125,18.875 28.664062,13.328125 26.09375,12.390625 24.03125,13.085938 30.285156,2.625 34.707031,24.386719 43.035156,33.265625 49.25,39.898438 56.546875,43.335938 60.375,44.804688 c 0.472656,-0.121094 0.964844,-0.195313 1.476562,-0.195313 3.070313,0.0078 5.574219,2.421875 5.714844,5.453125 z m 0,0"
             fill-opacity="1"
             fill-rule="nonzero"
             id="path12700" />
          <path
             fill="#ffffff"
             d="m 16.175781,62.257812 c -1.003906,0.957032 -1.957031,2.035157 -2.851562,3.265626 -4.007813,-4.578126 -4.875,-10.59375 -4.902344,-14.761719 4.273437,-2.785157 2.207031,9.148437 7.753906,11.496093 z m 0,0"
             fill-opacity="1"
             fill-rule="nonzero"
             id="path12702" />
          <path
             fill="#ffffff"
             d="m 12.769531,78.402344 c 0,0 -4.355469,2.523437 -9.394531,18.289062 0.03125,-0.625 1.25,-8.675781 1.25,-9.214844 0.085938,0.06641 0.167969,0.140626 0.25,0.214844 0,0 0,-3.648437 2.152344,-6.375 1.160156,-1.492187 2.964844,-2.707031 5.742187,-2.914062 z m 0,0"
             fill-opacity="1"
             fill-rule="nonzero"
             id="path12704" />
          <path
             fill="#ffffff"
             d="M 32.277344,37.945312 C 22.027344,34.921875 13.660156,25.179688 13.660156,25.179688 6.207031,18.402344 5.433594,20.851562 1.042969,19.628906 c 5.203125,-1.5625 11.566406,-1.164062 14.890625,3.417969 1.84375,2.546875 4.027344,4.878906 6.207031,6.933594 4.050781,3.824219 8.132813,6.65625 10.136719,7.964843 z m 0,0"
             fill-opacity="1"
             fill-rule="nonzero"
             id="path12706" />
          <g
             clip-path="url(#55fc7e3d72)"
             id="g12710">
            <path
               fill="#ffffff"
               d="m 77.15625,86.515625 c -0.785156,-0.332031 35.89453,20.281255 22.519531,25.511715 0,0 -18.175781,-23.687496 -22.519531,-25.511715 z m 0,0"
               fill-opacity="1"
               fill-rule="nonzero"
               id="path12708" />
          </g>
        </g>
      </g>
    </g>
    <path
       fill="#102770"
       d="m 251.45703,201.72656 c -0.58984,2.5625 -6.01172,2.96094 -11.28125,2.71875 -2.30859,-0.10937 -4.59766,-0.33594 -6.43359,-0.5664 -7.34766,14.55468 -26.22657,11.18359 -26.22657,11.18359 -5.26562,-2.59766 -3.57031,-4.96094 -0.62109,-7.46094 0.40625,-0.34375 0.84375,-0.6914 1.28125,-1.04297 -0.24219,-0.0937 -0.48047,-0.19531 -0.71484,-0.29687 -0.35157,0.29687 -0.70703,0.58203 -1.07032,0.86328 -15.72656,12.00391 -45.40625,10.59375 -64.09765,-0.14844 -6.89453,2.83985 -15.69141,3.12891 -24.48438,-5.66797 -0.0195,-0.0117 -0.0312,-0.0273 -0.0469,-0.0469 0,0 -8.88672,5.21094 -14.81641,0 -1.75781,-1.54297 -1.21875,-4.23438 0.57422,-7.08985 2.58203,4.01172 8.40625,8.92188 19.00781,-1.55468 0,0 0,0 0,0.008 0.008,0.25391 0.48047,6.28516 7.82422,8.23828 5.44531,1.44922 11.73828,4.01172 25.32813,-4.26562 0,0 -0.35547,5.80859 9.64843,10.15625 11.03125,4.79296 20.82813,1.91406 26.05079,-0.64454 3.05468,-1.5039 5.05468,-3.76953 1.92578,-7.59375 0,0 30.00781,15.375 21.1914,-3.85937 0,0 0,0 0.004,0.008 0.008,0.008 0.0234,0.0195 0.043,0.0352 0.11328,0.10547 0.46484,0.41797 0.99609,0.85547 0,0 0,0 0.008,0 3.39844,2.82422 14.01172,13.93359 19.63282,2.26562 0,0 12.14453,6.22656 11.78125,-2.68359 2.76172,2.05078 4.98828,4.4414 4.49609,6.58984 z m 0,0"
       fill-opacity="0.298"
       fill-rule="nonzero"
       id="path12718" />
    <path
       fill="#102770"
       d="m 236.59375,124.65625 c -7.05469,-3.63672 -13.82031,-3.63672 -14.75391,-3.625 -3.23828,-3.53906 -7.3164,-7.05469 -11.59375,-9.95312 -0.0742,-0.25 -3.52734,-11.773442 3.78516,-14.035161 10.07031,-3.113281 22.5625,27.613281 22.5625,27.613281 z m 0,0"
       fill-opacity="0.298"
       fill-rule="nonzero"
       id="path12720" />
    <path
       fill="#102770"
       d="m 251.21094,181.52344 c -1.25391,0 -2.49219,-0.11328 -3.6836,-0.34375 -0.64062,-0.125 -1.0625,-0.7461 -0.9375,-1.38672 0.12891,-0.63672 0.75,-1.0625 1.38672,-0.9336 1.21875,0.23438 2.51172,0.33594 3.83985,0.29688 h 0.0391 c 0.65234,0 1.18359,0.53125 1.18359,1.18359 0,0.65235 -0.52344,1.1836 -1.18359,1.1836 -0.21485,-0.008 -0.42969,0 -0.64453,0 z m 0,0"
       fill-opacity="1"
       fill-rule="nonzero"
       id="path12722" />
    <g
       clip-path="url(#ba47077d13)"
       id="g12726">
      <path
         fill="#102770"
         d="m 255.80078,182.60937 c -1.55469,0 -3.07812,-0.42578 -4.53906,-1.2539 -5.78906,-3.3125 -9.17969,-12.39453 -10.35938,-16.10938 -1.62109,1.27344 -4.10547,3.83594 -2.99609,7.0625 0.082,0.1211 0.25,0.375 0.51172,0.71485 l 0.25,0.32031 V 173.75 c 0,0.65234 -0.53125,1.18359 -1.1836,1.18359 -0.40625,0 -0.76171,-0.20312 -0.97656,-0.51172 -0.44531,-0.57031 -0.66797,-0.94921 -0.69531,-0.98828 l -0.0508,-0.0937 -0.043,-0.10156 c -1.91797,-5.20312 2.61328,-9.41797 5.27344,-10.91797 l 1.33984,-0.7539 0.38672,1.48437 c 0.0352,0.12891 3.38281,12.625 9.71484,16.24609 1.09766,0.625 2.23047,0.94141 3.35938,0.94141 5.02734,0 13.60547,-5.47266 17.32031,-11.04687 1.11719,-1.66797 2.30078,-4.125 1.62891,-6.32813 -0.51172,-1.66797 -2.05078,-3.02734 -4.57813,-4.04687 -1.35156,-0.54297 -2.625,-1.1211 -3.78125,-1.70704 -8.14453,-4.1289 -11.28906,-9.12109 -14.92969,-14.91015 -0.51953,-0.82422 -1.05078,-1.67188 -1.61718,-2.53906 -1.19141,-1.84375 -2.84766,-4.29688 -5.02735,-6.96875 -2.39062,-2.91407 -5.33984,-5.28516 -8.75781,-7.03907 -6.84766,-3.52343 -13.45703,-3.5 -14.19141,-3.48828 h -0.0547 c -0.65235,0.0547 -1.19922,-0.42968 -1.25782,-1.07812 -0.0625,-0.64453 0.4375,-1.22266 1.08204,-1.28516 0,0 0.0742,-0.008 0.20312,-0.008 1.27344,-0.0273 8.08594,0.043 15.29297,3.75 3.71094,1.90625 6.91016,4.47656 9.50781,7.64844 2.26172,2.76171 3.95703,5.28515 5.1875,7.17578 0.56641,0.88281 1.10547,1.73828 1.62891,2.5664 3.59765,5.71485 6.4375,10.22266 13.99609,14.05469 1.09766,0.55859 2.3086,1.10156 3.60156,1.62891 3.21875,1.30078 5.22266,3.16406 5.95704,5.54687 0.7539,2.44141 0.0898,5.32422 -1.91797,8.33985 -4.13282,6.22656 -13.51172,12.10546 -19.28516,12.10546 z m 0,0"
         fill-opacity="1"
         fill-rule="nonzero"
         id="path12724" />
    </g>
    <path
       fill="#102770"
       d="m 187.15625,146.45312 c -0.0234,0 -0.0586,0 -0.0859,0 -0.65234,-0.0469 -1.14453,-0.62109 -1.09765,-1.27343 0.40625,-5.49219 2.32421,-10.28125 5.53906,-13.83985 0.4375,-0.48437 1.1914,-0.52734 1.67969,-0.0898 0.48437,0.4375 0.52343,1.19141 0.0859,1.67969 -2.85937,3.16797 -4.57031,7.46484 -4.93359,12.42578 -0.0547,0.625 -0.57422,1.09765 -1.1875,1.09765 z m 0,0"
       fill-opacity="1"
       fill-rule="nonzero"
       id="path12728" />
    <path
       fill="#102770"
       d="m 239.73047,191.51953 c -0.57031,0 -1.07422,-0.41797 -1.17188,-0.99609 -0.0977,-0.64453 0.33985,-1.25 0.98438,-1.35938 8.63672,-1.38672 13.80859,-5.9375 16.11719,-8.52734 0.4375,-0.49219 1.18359,-0.53125 1.67578,-0.0937 0.49218,0.4375 0.53125,1.18359 0.0937,1.67578 -2.52344,2.82422 -8.15235,7.78906 -17.50782,9.28906 -0.0703,0.008 -0.1289,0.0117 -0.1914,0.0117 z m 0,0"
       fill-opacity="1"
       fill-rule="nonzero"
       id="path12730" />
    <path
       fill="#102770"
       d="m 195.36328,138.02344 c -0.375,0 -0.74609,-0.17578 -0.97656,-0.51172 -0.17578,-0.25391 -4.39453,-6.35938 -7.51953,-13.39453 -4.38672,-9.90235 -4.35547,-16.51563 0.10937,-19.65235 2.60547,-1.82812 6.23828,-2.125 10.80469,-0.8789 11.26953,3.08203 26.60156,15.57031 30.94922,25.20703 0.26953,0.60156 0.008,1.30078 -0.58985,1.57031 -0.60156,0.26953 -1.30078,0.008 -1.57031,-0.59375 -4.03906,-8.95703 -18.88672,-21.01562 -29.41406,-23.89453 -2.64844,-0.73047 -6.32422,-1.21875 -8.8125,0.53125 -6.98828,4.91406 3.39844,23.14844 7.99609,29.75781 0.3711,0.53906 0.24219,1.28125 -0.29687,1.65235 -0.20703,0.14062 -0.44531,0.20703 -0.67969,0.20703 z m 0,0"
       fill-opacity="1"
       fill-rule="nonzero"
       id="path12732" />
    <path
       fill="#102770"
       d="m 236.59375,125.79297 c -0.46875,0 -0.90625,-0.27734 -1.09766,-0.74219 -0.0312,-0.0742 -3.14843,-7.69922 -7.4375,-14.82812 -5.33593,-8.87891 -10.19922,-13.175785 -13.68359,-12.09766 -6.17578,1.90625 -3.03125,12.45313 -2.99609,12.5625 0.1875,0.625 -0.16407,1.28516 -0.78907,1.48047 -0.625,0.19531 -1.28515,-0.16016 -1.48047,-0.78906 -0.16015,-0.52344 -3.85546,-12.917972 4.5625,-15.515629 4.76954,-1.472656 10.29297,2.957031 16.42579,13.160159 4.38281,7.28515 7.5625,15.05859 7.58593,15.14062 0.25,0.60547 -0.0469,1.29688 -0.65234,1.53907 -0.13281,0.0547 -0.28906,0.0898 -0.4375,0.0898 z m 0,0"
       fill-opacity="1"
       fill-rule="nonzero"
       id="path12734" />
    <path
       fill="#ed2e7a"
       d="m 217.73437,126.80078 -7.4414,0.51172 -6.14453,3.50781 c 0,0 -15.32032,-14.11718 -8.8125,-18.72656 6.51562,-4.59766 22.39843,14.70703 22.39843,14.70703 z m 0,0"
       fill-opacity="1"
       fill-rule="nonzero"
       id="path12736" />
    <path
       fill="#102770"
       d="m 204.07422,131.50781 -0.29688,-0.27734 c -0.44922,-0.41016 -10.98437,-10.19922 -10.58593,-16.30859 0.0859,-1.375 0.70312,-2.47657 1.83593,-3.27344 6.85157,-4.84766 22.47657,14.0039 23.14453,14.80469 l 0.67969,0.82812 -8.38281,0.57813 z m -6.36719,-19.5625 c -0.76953,0 -1.46094,0.1875 -2.04687,0.60547 -0.85547,0.60547 -1.30469,1.40235 -1.36719,2.44531 -0.32813,5.05469 8.23437,13.51563 9.9414,15.14453 l 5.90625,-3.36718 6.48047,-0.44141 c -4.23828,-4.96094 -13.49609,-14.38672 -18.91406,-14.38672 z m 0,0"
       fill-opacity="1"
       fill-rule="nonzero"
       id="path12738" />
    <path
       fill="#102770"
       d="m 204.14844,131.95703 c -0.29688,0 -0.58594,-0.10547 -0.8086,-0.30859 -1.14453,-1.05469 -11.19922,-10.51563 -10.78906,-16.81641 0.10156,-1.55469 0.82813,-2.84765 2.09766,-3.75 3.21093,-2.26562 8.29687,-0.34765 15.11328,5.71094 4.80078,4.26172 8.71875,9.01172 8.88672,9.20703 0.33593,0.41016 0.36328,0.99609 0.0547,1.43359 -0.30468,0.4336 -0.86328,0.61328 -1.35937,0.4375 -0.0625,-0.0195 -2.92188,-0.9414 -6.88672,0.52735 -3.77734,1.39453 -5.41406,3.15625 -5.43359,3.17578 -0.21485,0.23437 -0.51172,0.3789 -0.82813,0.39062 -0.0117,-0.008 -0.0352,-0.008 -0.0469,-0.008 z m -6.41016,-19.4414 c -0.65234,0 -1.23828,0.15625 -1.72266,0.5 -0.69921,0.49218 -1.05078,1.11718 -1.10156,1.96484 -0.26562,4.03125 5.98828,11.00781 9.2461,14.17969 0.97265,-0.78125 2.74218,-1.98047 5.47265,-2.99219 2.01563,-0.73828 3.79297,-0.96875 5.19922,-0.97656 -5.26562,-5.91016 -12.79687,-12.67578 -17.09375,-12.67578 z m 0,0"
       fill-opacity="1"
       fill-rule="nonzero"
       id="path12740" />
    <path
       fill="#102770"
       d="m 270.67578,171.39844 c -5.18359,0 -8.75781,-2.60547 -10.23047,-7.5586 -0.9414,-3.16406 -0.76953,-5.55859 0.51953,-7.1289 1.21094,-1.47266 3.25,-2.09375 6.0625,-1.83594 0.65235,0.0586 1.13282,0.63281 1.07032,1.28516 -0.0586,0.65234 -0.63282,1.1289 -1.28516,1.07031 -1.36719,-0.1211 -3.17188,-0.0547 -4.01953,0.97656 -0.7461,0.90625 -0.77344,2.61719 -0.0781,4.94531 1.4375,4.85547 5.19532,6.71094 11.16797,5.52735 0.64453,-0.12891 1.26563,0.28906 1.39063,0.92968 0.1289,0.64063 -0.28907,1.26563 -0.92969,1.39454 -1.29688,0.26953 -2.52344,0.39453 -3.66797,0.39453 z m 0,0"
       fill-opacity="1"
       fill-rule="nonzero"
       id="path12742" />
    <path
       fill="#102770"
       d="m 233.73437,204.61328 c -0.18359,0 -0.36328,-0.0391 -0.53125,-0.12891 -0.58593,-0.29296 -0.82421,-1.00781 -0.52734,-1.59375 1.67578,-3.3125 2.59375,-7.40625 2.73438,-12.16406 0.0195,-0.65234 0.57812,-1.16406 1.21875,-1.15234 0.65234,0.0195 1.17187,0.5664 1.15234,1.21875 -0.14844,5.10937 -1.15234,9.53906 -2.99219,13.16015 -0.19922,0.42579 -0.61719,0.66016 -1.05469,0.66016 z m 0,0"
       fill-opacity="1"
       fill-rule="nonzero"
       id="path12744" />
    <path
       fill="#102770"
       d="m 187.15234,146.45312 c -0.65234,0 -1.1875,-0.53125 -1.1875,-1.1875 0,-0.32812 0.13672,-0.625 0.35157,-0.83984 0.21484,-0.21484 0.51171,-0.35156 0.83984,-0.35156 0.65625,0 1.1875,0.53515 1.1875,1.1875 0,0.66015 -0.53125,1.1914 -1.19141,1.1914 z m 0,0"
       fill-opacity="1"
       fill-rule="nonzero"
       id="path12746" />
    <path
       fill="#102770"
       d="m 208.16797,207.29297 c -0.14063,0 -0.28906,-0.0273 -0.4375,-0.082 -0.25,-0.10157 -0.5,-0.19922 -0.74219,-0.30078 -0.92969,-0.38282 -1.89844,-0.81641 -2.96094,-1.3086 -1.26562,-0.58203 -2.57031,-1.22265 -3.8789,-1.90234 -4.22657,-2.17578 -7.44532,-4.16016 -7.47657,-4.17969 -0.55859,-0.34375 -0.72656,-1.07031 -0.38281,-1.62891 0.33985,-0.55859 1.07031,-0.73437 1.62891,-0.38671 0.0312,0.0195 3.18359,1.96093 7.32422,4.08593 1.27734,0.66016 2.55468,1.28907 3.78906,1.85938 1.02734,0.47656 1.97266,0.89453 2.87891,1.26562 0.23828,0.10157 0.46484,0.19532 0.69531,0.28907 0.60547,0.24218 0.90625,0.92968 0.66406,1.53515 -0.1875,0.47266 -0.63281,0.75391 -1.10156,0.75391 z m 0,0"
       fill-opacity="1"
       fill-rule="nonzero"
       id="path12748" />
    <path
       fill="#102770"
       d="m 206.15625,189.3125 c -0.22266,0 -0.44531,-0.0586 -0.64844,-0.1875 -3.14453,-2.03906 -9.83594,-5.52734 -9.90234,-5.5625 -0.57813,-0.30078 -0.8086,-1.01563 -0.50391,-1.59375 0.30078,-0.57813 1.01563,-0.80859 1.59375,-0.50391 0.27735,0.14844 6.85938,3.57422 10.09766,5.67188 0.55469,0.35937 0.70703,1.09375 0.35156,1.64453 -0.22266,0.34375 -0.59766,0.53125 -0.98828,0.53125 z m 0,0"
       fill-opacity="1"
       fill-rule="nonzero"
       id="path12750" />
    <path
       fill="#102770"
       d="m 242.75391,205.23828 c -0.82032,0 -1.70313,-0.0195 -2.63672,-0.0664 -0.65625,-0.0273 -1.16016,-0.58593 -1.13282,-1.23828 0.0273,-0.65234 0.58594,-1.14453 1.23829,-1.1289 9.09375,0.41406 9.98828,-1.42969 10.07812,-1.80078 0.37109,-1.60547 -1.91406,-4.11719 -6.26953,-6.88672 -0.55078,-0.34766 -0.71094,-1.08203 -0.36328,-1.63282 0.35156,-0.55468 1.08594,-0.71484 1.63672,-0.36328 5.5625,3.53125 7.94922,6.61719 7.30468,9.41797 -0.57812,2.50781 -3.73046,3.69922 -9.85546,3.69922 z m 0,0"
       fill-opacity="1"
       fill-rule="nonzero"
       id="path12752" />
    <path
       fill="#102770"
       d="m 133.79687,209.48828 c -5.78906,0 -11.24999,-2.42578 -16.26562,-7.22266 -2.45703,1.21875 -9.91406,4.23829 -15.37891,-0.55859 -0.89453,-0.78906 -1.85937,-2.25781 -1.33203,-4.74609 1.14453,-5.39844 9.19532,-13.0586 15.95703,-15.17969 2.3711,-0.74219 4.4375,-0.76953 6.10157,-0.10156 0.625,-3.47266 2.93359,-8.00391 8.80468,-8.44922 0.65235,-0.0469 1.21875,0.4375 1.27344,1.08984 0.0469,0.65235 -0.4375,1.21875 -1.09375,1.27344 -6.6914,0.50391 -6.79687,7.79687 -6.80469,8.10547 0,0.46875 -0.28125,0.89453 -0.71875,1.08203 -0.43359,0.19141 -0.9375,0.10156 -1.28125,-0.22266 -1.49218,-1.40625 -3.84765,-1.05468 -5.5664,-0.51562 -5.99219,1.875 -13.36328,8.76172 -14.34375,13.41015 -0.35156,1.65235 0.34765,2.27344 0.57812,2.47657 5.20313,4.57031 13.34766,-0.0898 13.42969,-0.13672 0.46484,-0.26953 1.05859,-0.19531 1.44141,0.1875 4.98828,5.0039 10.40625,7.39844 16.12109,7.11719 11.16797,-0.54688 19.95312,-11.13282 20.03906,-11.24219 0.41016,-0.50391 1.16016,-0.57813 1.67188,-0.16797 0.5039,0.41016 0.57812,1.15625 0.16797,1.66797 -0.38672,0.47265 -9.51954,11.50781 -21.75,12.11328 -0.35938,0.004 -0.70704,0.0195 -1.05079,0.0195 z m 0,0"
       fill-opacity="1"
       fill-rule="nonzero"
       id="path12754" />
    <path
       fill="#102770"
       d="m 176.65625,216.32812 c -0.41016,0 -0.82031,-0.008 -1.23047,-0.0156 -12.09766,-0.19922 -24.39453,-3.39063 -33.73437,-8.76172 -0.5625,-0.32422 -0.75782,-1.05078 -0.4375,-1.61719 0.32421,-0.5664 1.05078,-0.76172 1.61718,-0.4375 17.37891,9.98828 46.76563,12.47266 62.79297,0.23438 0.34375,-0.26172 0.69141,-0.53906 1.02735,-0.82813 0.50781,-0.42187 1.2539,-0.35547 1.67187,0.14844 0.41797,0.50391 0.35547,1.25391 -0.14844,1.67188 -0.36328,0.30859 -0.74218,0.60546 -1.11718,0.89453 -7.37891,5.63281 -18.14844,8.71093 -30.44141,8.71093 z m 0,0"
       fill-opacity="1"
       fill-rule="nonzero"
       id="path12756" />
    <path
       fill="#102770"
       d="m 126.02344,178.50781 c -0.0742,0 -0.15625,-0.008 -0.23047,-0.0195 -0.64063,-0.12891 -1.0625,-0.74609 -0.9375,-1.39453 0.58594,-2.98047 1.34766,-5.72656 2.25781,-8.17188 1.76953,-4.7539 4.20703,-8.62109 7.25,-11.51171 0.0195,-0.0117 0.0312,-0.0312 0.0508,-0.0469 9.11719,-8.60937 21.69141,-7.03516 30.8711,-5.875 2.62109,0.32813 4.88281,0.61328 6.67968,0.61328 9.46485,0 11.55078,-1.50781 11.72657,-1.65234 0.38281,-0.45703 1.05859,-0.5625 1.5664,-0.22656 0.54688,0.36328 0.69531,1.09765 0.33203,1.64062 -0.40234,0.61328 -2.58593,2.60547 -13.625,2.60547 -1.94531,0 -4.27343,-0.28906 -6.97265,-0.63281 -8.73047,-1.09766 -20.6875,-2.59766 -28.9961,5.29297 -0.0117,0.0117 -0.0312,0.0312 -0.0508,0.0469 -2.7539,2.63281 -4.97656,6.18359 -6.61328,10.57422 -0.86719,2.32422 -1.58594,4.94922 -2.15234,7.80078 -0.10938,0.56641 -0.60547,0.95703 -1.15625,0.95703 z m 57.58593,-27.96484 z m 0,0 z m 0,0 z m 0.0898,-0.11328 z m 0,0"
       fill-opacity="1"
       fill-rule="nonzero"
       id="path12758" />
    <path
       fill="#102770"
       d="m 212.21875,216.13281 c -2.85156,0 -4.79297,-0.33594 -4.91797,-0.35937 l -0.17187,-0.0234 -0.14454,-0.0742 c -2.52734,-1.24609 -3.84375,-2.62109 -4.03906,-4.19531 -0.25,-2.01953 1.37891,-3.71094 3.17578,-5.23047 0.41016,-0.35156 0.83594,-0.6875 1.30469,-1.0625 l 0.53906,-0.43359 0.64063,0.25781 c 7.04687,2.83984 9.90234,2.45703 10.97265,1.97656 0.55079,-0.24609 0.90625,-0.61719 1.10938,-1.17578 0.96484,-2.64453 -2.08594,-6.90625 -8.58984,-12.00391 -1.87891,-1.47265 -3.99219,-2.98047 -6.30469,-4.48828 h -0.082 l -0.35157,-0.29687 c -9.64062,-8.14453 -16.24218,-16.04688 -19.6289,-23.48828 -2.4961,-5.48438 -3.22266,-10.61329 -2.16797,-15.23438 0.51953,-2.27344 1.375,-3.89453 1.99219,-4.86719 0.39843,-0.61718 0.67968,-0.93359 0.71484,-0.96875 l 2.30078,-2.48828 -0.24609,3.38672 c -0.94922,12.92188 7.65234,31.11719 25.46875,39.37109 0.6875,0.32422 1.40234,0.63282 2.14453,0.92969 8.62109,3.46094 16.55859,4.63672 23.58594,3.50781 l 0.375,-0.0625 0.34375,0.17579 c 1.23828,0.625 3.11718,1.62109 5.04297,2.84765 0.55078,0.35156 0.71484,1.08594 0.36328,1.63672 -0.35157,0.55078 -1.08203,0.71484 -1.63672,0.36328 -1.67578,-1.0625 -3.31641,-1.95312 -4.4961,-2.55859 -7.36328,1.09765 -15.58984,-0.14844 -24.46093,-3.70313 -0.78125,-0.3164 -1.54297,-0.64453 -2.26172,-0.98047 -8.52344,-3.95312 -15.64453,-10.32031 -20.58594,-18.42578 -3.55469,-5.82812 -5.6875,-12.11718 -6.20703,-18.14062 -0.0469,0.16797 -0.0859,0.33594 -0.12891,0.51562 -1.32422,5.80469 -0.38281,18.19141 20.70703,36.125 h 0.0547 l 0.26953,0.26172 c 2.4375,1.58985 4.67969,3.17578 6.65625,4.73047 7.58594,5.95313 10.73828,10.88672 9.35157,14.68359 -0.42579,1.17188 -1.22657,2.01954 -2.375,2.53125 -2.46485,1.09766 -6.44922,0.54297 -12.17969,-1.6914 -0.25,0.20312 -0.48438,0.39844 -0.71485,0.58594 -1.07031,0.90234 -2.46875,2.20703 -2.35937,3.13671 0.0781,0.67579 0.99609,1.47657 2.57812,2.28125 1.79688,0.26954 18.28907,2.33204 24.79688,-10.5664 l 0.37891,-0.74219 0.82812,0.10156 c 2.28125,0.28516 4.42188,0.46485 6.34766,0.5586 0.65234,0.0273 1.15625,0.58593 1.1289,1.23828 -0.0312,0.65234 -0.58984,1.15234 -1.23828,1.13281 -1.75781,-0.082 -3.67578,-0.24219 -5.71484,-0.48047 -3.25,5.87891 -8.87891,9.65625 -16.33203,10.94922 -2.13282,0.33984 -4.14453,0.45703 -5.83594,0.45703 z m 0,0"
       fill-opacity="1"
       fill-rule="nonzero"
       id="path12760" />
    <path
       fill="#102770"
       d="m 180.85156,153.26562 c -0.63281,0 -1.26562,-0.0898 -1.87109,-0.25781 -2.96485,-0.82812 -5.04297,-3.55859 -5.04297,-6.64844 0,-3.13281 2.10547,-5.8789 5.12891,-6.67968 0.58593,-0.15625 1.18359,-0.23047 1.77734,-0.23047 3.69531,0 6.72656,2.89062 6.89453,6.57812 l 0.0195,0.37891 -0.21094,0.31641 c -0.51562,0.80078 -1.23046,2.16796 -1.67578,4.10546 l -0.0781,0.35547 -0.26953,0.25 c -1.27344,1.17969 -2.9375,1.83203 -4.67188,1.83203 z m 0,-11.45312 c -0.39062,0 -0.78906,0.0547 -1.17187,0.15625 -1.98047,0.52344 -3.36719,2.32812 -3.36719,4.38281 0,2.02735 1.35937,3.82422 3.3125,4.36719 0.39844,0.11719 0.80859,0.16797 1.22656,0.16797 1.02735,0 2.01172,-0.34375 2.8125,-0.98047 0.46485,-1.82422 1.13281,-3.20703 1.6836,-4.12891 -0.27735,-2.24609 -2.1875,-3.96484 -4.4961,-3.96484 z m 0,0"
       fill-opacity="1"
       fill-rule="nonzero"
       id="path12762" />
    <path
       fill="#102770"
       d="m 179.375,142.00781 c -0.14063,0 -0.28125,-0.0273 -0.42188,-0.0781 -3.89843,-1.4961 -11.39843,-5.03125 -17.77734,-11.83594 -3.15234,-3.35937 -5.74219,-8.44922 -8.02734,-12.9375 -2.30078,-4.52344 -4.90625,-9.65234 -6.76563,-9.65234 -0.0117,0 -0.0195,0 -0.0234,0 -0.46093,0.0117 -1.72656,0.48828 -3.52343,4.625 l -0.0391,0.0859 c -0.0273,0.0547 -2.97656,5.74219 -0.52343,13.42188 0.19922,0.625 -0.14844,1.29297 -0.76953,1.48828 -0.625,0.20313 -1.29297,-0.14844 -1.48829,-0.76562 -2.67187,-8.375 0.33204,-14.5625 0.67579,-15.21485 1.76171,-4.03906 3.54687,-5.94922 5.60546,-6.01172 3.35157,-0.10937 5.84375,4.77344 8.98047,10.94532 2.21485,4.34765 4.71875,9.27734 7.64063,12.39453 6.05859,6.46093 13.1875,9.82031 16.90234,11.24218 0.61328,0.23438 0.91406,0.92188 0.67969,1.52735 -0.19531,0.47656 -0.64453,0.76562 -1.125,0.76562 z m 0,0"
       fill-opacity="1"
       fill-rule="nonzero"
       id="path12764" />
    <path
       fill="#102770"
       d="m 169.98047,153.76953 c -4.78906,0 -9.45313,-0.57422 -13.94922,-1.71484 -10.42188,-2.65235 -19.58984,-8.32422 -27.23438,-16.85938 -5.83984,-6.50781 -9.77734,-7.08203 -12.65234,-7.49609 -2.0664,-0.30469 -4.01562,-0.58594 -5.12109,-3.21875 -1.1836,-2.82813 0.62109,-6.01172 4.6914,-8.30078 5.48047,-3.07813 15.36328,-4.4375 20.16797,2.1875 1.46875,2.01953 3.27735,4.08594 5.39453,6.14062 0.46875,0.45703 0.48438,1.20313 0.0234,1.67578 -0.45703,0.46875 -1.20312,0.48438 -1.67578,0.0273 -2.21484,-2.14844 -4.11719,-4.31641 -5.66016,-6.44922 -3.91015,-5.38672 -12.50781,-4.08594 -17.08984,-1.51563 -2.30859,1.29297 -4.48437,3.3711 -3.67187,5.31641 0.55859,1.33594 1.23437,1.48828 3.27343,1.78516 3.05469,0.44531 7.66797,1.11718 14.07422,8.26171 15.95703,17.79688 35.22266,19.10938 48.57031,17.07813 0.64453,-0.0937 1.25,0.34375 1.35157,0.99609 0.10156,0.64453 -0.34375,1.25 -0.9961,1.35157 -3.20312,0.49218 -6.375,0.73437 -9.49609,0.73437 z m 0,0"
       fill-opacity="1"
       fill-rule="nonzero"
       id="path12766" />
    <path
       fill="#102770"
       d="m 152.48437,134.89453 c -1.13671,-0.45703 -2.22265,-1.01562 -3.29296,-1.60156 -1.0625,-0.59375 -2.10547,-1.21875 -3.125,-1.89453 -1.01563,-0.67188 -2.01563,-1.36328 -2.96094,-2.14453 -0.94922,-0.76954 -1.85547,-1.58985 -2.67969,-2.5 -0.38281,-0.42188 -0.34766,-1.08203 0.0742,-1.46485 0.37891,-0.34375 0.94531,-0.35937 1.33594,-0.0547 l 0.0117,0.0117 c 0.9414,0.72657 1.8164,1.51563 2.70703,2.29688 l 2.65234,2.375 c 1.77734,1.58984 3.59375,3.14453 5.42969,4.71875 0.0625,0.0547 0.0703,0.14844 0.0156,0.21094 -0.0469,0.0508 -0.11328,0.0664 -0.16797,0.0469 z m 0,0"
       fill-opacity="1"
       fill-rule="nonzero"
       id="path12768" />
    <path
       fill="#102770"
       d="m 128.22266,170.51953 c -0.30078,0 -0.61328,-0.11719 -0.83985,-0.35156 -3.3789,-3.40625 -5.57422,-10.48828 -5.00781,-16.12891 0.375,-3.74219 1.875,-6.58594 4.33984,-8.22656 0.96094,-0.64063 1.85938,-0.80859 2.66407,-0.49219 1.52343,0.59375 1.99609,2.53125 2.59375,4.98047 0.67187,2.76953 1.43359,5.90625 3.64062,6.85938 0.4375,0.17578 0.75,0.60156 0.75,1.10546 0,0.65235 -0.53516,1.1836 -1.1875,1.1836 h -0.24219 l -0.22265,-0.0937 c -3.32422,-1.40625 -4.28125,-5.33594 -5.04688,-8.4961 -0.28906,-1.20312 -0.73437,-3.01562 -1.13672,-3.32421 -0.0547,0.008 -0.21875,0.0547 -0.5,0.24218 -2.34375,1.5625 -3.08203,4.39063 -3.29687,6.48828 -0.5,4.9375 1.4375,11.3125 4.32812,14.22657 0.45703,0.46484 0.45703,1.21093 -0.008,1.67578 -0.23047,0.23437 -0.52344,0.35156 -0.82812,0.35156 z m 0,0"
       fill-opacity="1"
       fill-rule="nonzero"
       id="path12770" />
    <path
       fill="#102770"
       d="m 237.57812,185.41406 c -1.48046,0 -2.9414,-0.14062 -4.2539,-0.44922 -3.10938,-0.73437 -5.08203,-2.30468 -5.71485,-4.53125 -0.23828,-0.83593 -0.47265,-2.05468 0.15235,-3.07812 0.70312,-1.12891 2.01953,-1.38672 3.42578,-1.65235 1.76562,-0.33984 3.76562,-0.72265 5.39453,-2.70312 0.96094,-1.16406 2.39063,-1.64063 4.01953,-1.34375 3.39063,0.625 7.14063,4.42969 8.10156,7.28906 0.57422,1.69531 0.0898,2.71875 -0.41406,3.27735 -1.77344,1.9414 -6.34765,3.1914 -10.71094,3.1914 z m 0.82813,-10.90625 c -2.17578,2.63281 -4.83203,3.14453 -6.77344,3.51563 -0.71875,0.14062 -1.70312,0.32812 -1.85547,0.57422 -0.0156,0.0234 -0.14843,0.28125 0.10547,1.18359 0.48438,1.71094 2.42969,2.50391 3.98047,2.86719 4.58984,1.08203 11.03125,-0.22266 12.66797,-2.02735 0.0664,-0.0742 0.10547,-0.39062 -0.0742,-0.92968 -0.72266,-2.14063 -3.83203,-5.25391 -6.28906,-5.71485 -1.03516,-0.17969 -1.5,0.21485 -1.76172,0.53125 z m 0,0"
       fill-opacity="1"
       fill-rule="nonzero"
       id="path12772" />
    <path
       fill="#102770"
       d="m 239.07812,179.30078 c 0.5586,-0.34766 1.09766,-0.67187 1.58204,-1.03516 0.48437,-0.35156 0.92187,-0.73437 1.24609,-1.13671 0.32812,-0.40625 0.51172,-0.81641 0.61719,-1.20704 0.10937,-0.39062 0.1289,-0.79296 0.125,-1.27734 v -0.0937 c 0,-0.57812 0.46093,-1.04297 1.04297,-1.05078 0.4414,0 0.82812,0.27734 0.97265,0.66797 0.29297,0.74609 0.29688,1.66015 -0.004,2.46875 -0.14844,0.40234 -0.3711,0.77344 -0.63282,1.08984 -0.26172,0.31641 -0.57422,0.57422 -0.88281,0.79688 -0.625,0.4375 -1.30469,0.69922 -1.97266,0.85937 -0.67187,0.15625 -1.34765,0.22266 -2.01171,0.19531 -0.0898,-0.008 -0.15625,-0.0742 -0.14844,-0.16015 -0.008,-0.043 0.0273,-0.0898 0.0664,-0.11719 z m 0,0"
       fill-opacity="1"
       fill-rule="nonzero"
       id="path12774" />
    <path
       fill="#102770"
       d="m 246.91406,149.75781 c 0,0.41016 -0.0195,0.81641 -0.0625,1.21875 -0.0391,0.40235 -0.10156,0.79297 -0.18359,1.17578 -0.0781,0.37891 -0.17969,0.73828 -0.29688,1.07813 -0.11718,0.34375 -0.25,0.66015 -0.39843,0.94922 -0.14844,0.28906 -0.3125,0.55078 -0.48829,0.77734 -0.17578,0.22656 -0.35937,0.42188 -0.55468,0.57813 -0.19532,0.15625 -0.39844,0.27734 -0.60547,0.35546 -0.20703,0.082 -0.41797,0.1211 -0.62891,0.1211 -0.21094,0 -0.41797,-0.0391 -0.625,-0.1211 -0.20703,-0.0781 -0.41015,-0.19921 -0.60547,-0.35546 -0.19531,-0.15625 -0.3789,-0.35157 -0.55468,-0.57813 -0.17579,-0.22656 -0.33985,-0.48828 -0.48829,-0.77734 -0.14843,-0.28907 -0.28515,-0.60547 -0.40234,-0.94922 -0.11719,-0.33985 -0.21484,-0.69922 -0.29687,-1.07813 -0.0781,-0.38281 -0.14063,-0.77343 -0.1836,-1.17578 -0.0391,-0.40234 -0.0586,-0.80859 -0.0586,-1.21875 0,-0.41015 0.0195,-0.8164 0.0586,-1.21875 0.043,-0.40625 0.10547,-0.79687 0.1836,-1.17578 0.082,-0.37891 0.17968,-0.73828 0.29687,-1.08203 0.11719,-0.33984 0.25391,-0.65625 0.40234,-0.94531 0.14844,-0.29297 0.3125,-0.55078 0.48829,-0.77735 0.17578,-0.23047 0.35937,-0.42187 0.55468,-0.57812 0.19532,-0.15625 0.39844,-0.27735 0.60547,-0.35547 0.20703,-0.082 0.41406,-0.12109 0.625,-0.12109 0.21094,0 0.42188,0.0391 0.62891,0.12109 0.20703,0.0781 0.41015,0.19922 0.60547,0.35547 0.19531,0.15625 0.3789,0.34765 0.55468,0.57812 0.17579,0.22657 0.33985,0.48438 0.48829,0.77735 0.14843,0.28906 0.28125,0.60547 0.39843,0.94531 0.11719,0.34375 0.21875,0.70312 0.29688,1.08203 0.082,0.37891 0.14453,0.76953 0.18359,1.17578 0.043,0.40235 0.0625,0.8086 0.0625,1.21875 z m 0,0"
       fill-opacity="1"
       fill-rule="nonzero"
       id="path12776" />
    <path
       fill="#102770"
       d="m 117.79688,202.04297 c -0.30469,0 -0.60547,-0.11328 -0.83594,-0.34375 -0.46485,-0.46485 -0.46485,-1.21094 -0.008,-1.67578 4.73437,-4.76563 5.46875,-12.41407 5.48828,-16.54688 0,-0.65234 0.53125,-1.1914 1.1914,-1.17969 0.65235,0 1.1836,0.53125 1.17578,1.19141 -0.0195,4.5 -0.83984,12.84375 -6.17187,18.21094 -0.23438,0.23047 -0.53906,0.34375 -0.83984,0.34375 z m 0,0"
       fill-opacity="1"
       fill-rule="nonzero"
       id="path12778" />
    <path
       fill="#ffffff"
       d="m 245.01562,149.75781 c 0,0.32422 -0.0234,0.63672 -0.0664,0.9336 -0.043,0.30078 -0.10547,0.5664 -0.1875,0.79296 -0.0781,0.23047 -0.17188,0.40625 -0.27735,0.53125 -0.10546,0.125 -0.21484,0.1836 -0.32812,0.1836 -0.11719,0 -0.22656,-0.0586 -0.33203,-0.1836 -0.10547,-0.125 -0.19922,-0.30078 -0.27735,-0.53125 -0.082,-0.22656 -0.14453,-0.49218 -0.1875,-0.79296 -0.043,-0.29688 -0.0664,-0.60938 -0.0664,-0.9336 0,-0.32422 0.0234,-0.63672 0.0664,-0.9375 0.043,-0.29687 0.10547,-0.5625 0.1875,-0.78906 0.0781,-0.23047 0.17188,-0.40625 0.27735,-0.53125 0.10547,-0.125 0.21484,-0.1875 0.33203,-0.1875 0.11328,0 0.22266,0.0625 0.32812,0.1875 0.10547,0.125 0.19922,0.30078 0.27735,0.53125 0.082,0.22656 0.14453,0.49219 0.1875,0.78906 0.043,0.30078 0.0664,0.61328 0.0664,0.9375 z m 0,0"
       fill-opacity="1"
       fill-rule="nonzero"
       id="path12780" />
    <g
       mask="url(#85767ba833)"
       id="g12796">
      <g
         transform="translate(185,105)"
         id="g12794">
        <g
           clip-path="url(#b444c08e16)"
           id="g12792">
          <g
             clip-path="url(#20f943c200)"
             id="g12784">
            <path
               fill="#102770"
               d="m 72.738281,77.183594 c -1.84375,2.066406 -7.714843,7.457031 -17.339843,9 -6.214844,1.003906 -14.21875,0.4375 -24.21875,-3.574219 -0.75,-0.296875 -1.484376,-0.617187 -2.203126,-0.957031 C 11.367188,73.496094 1.765625,55.40625 2.816406,41.117188 3.160156,36.519531 5.289062,31.46875 8.046875,27.96875 c 1.609375,2.71875 2.867187,4.550781 2.976563,4.707031 0,0 0.0078,0.0039 0.0078,0.01172 0,0 -9.445312,25.464844 16.53125,43.445312 25.976562,17.980469 42.792969,1.058594 42.792969,1.058594 0.363281,0.05469 0.734375,0.08594 1.109375,0.08594 0.40625,0 0.835937,-0.03125 1.273437,-0.09375 z m 0,0"
               fill-opacity="1"
               fill-rule="nonzero"
               id="path12782" />
          </g>
          <g
             clip-path="url(#6551538620)"
             id="g12788">
            <path
               fill="#102770"
               d="M 8.390625,27.550781 C 8.277344,27.6875 8.164062,27.828125 8.046875,27.96875 3.597656,20.449219 -3.550781,6.117188 3.328125,1.285156 4.089844,0.746094 4.957031,0.375 5.902344,0.144531 3.78125,4.65625 1.960938,13.65625 8.390625,27.550781 Z m 0,0"
               fill-opacity="1"
               fill-rule="nonzero"
               id="path12786" />
          </g>
          <path
             fill="#102770"
             d="M 70.355469,77.191406 C 70.140625,77.3125 49.414062,88.492188 44.734375,76.757812 c 2.671875,5.039063 15.523437,3.625 18.34375,0.519532 0.324219,-0.355469 0.417969,-0.839844 0.34375,-1.414063 1.253906,0.242188 2.617187,0.363281 4.105469,0.316407 0.882812,0.507812 1.824218,0.863281 2.828125,1.011718 z m 0,0"
             fill-opacity="1"
             fill-rule="nonzero"
             id="path12790" />
        </g>
      </g>
    </g>
  </g>
</svg>
