<?xml version="1.0" encoding="UTF-8" standalone="no"?>
<svg
   version="1.0"
   width="414.49814pt"
   height="415.1048pt"
   viewBox="0 0 414.49814 415.1048"
   preserveAspectRatio="xMidYMid meet"
   id="svg961"
   xmlns="http://www.w3.org/2000/svg"
   xmlns:svg="http://www.w3.org/2000/svg">
  <defs
     id="defs965" />
  <g
     transform="matrix(0.1,0,0,-0.1,-63.386401,465.69621)"
     fill="#000000"
     stroke="none"
     id="g959">
    <path
       d="m 2550,4654 c -19,-2 -75,-9 -125,-14 -49,-6 -142,-24 -205,-41 -63,-17 -128,-34 -145,-38 -64,-17 -225,-86 -335,-143 -161,-84 -308,-189 -469,-333 -53,-48 -201,-220 -256,-298 -189,-268 -300,-534 -362,-872 -23,-125 -26,-525 -5,-645 54,-307 170,-609 323,-838 289,-430 729,-744 1215,-866 213,-54 273,-61 529,-60 217,0 253,3 376,27 232,45 468,135 673,254 l 78,46 327,-87 c 179,-47 340,-86 356,-86 39,0 68,21 88,63 16,33 14,48 -51,410 l -68,375 62,124 c 110,220 175,427 210,668 13,90 15,162 11,330 -5,227 -19,331 -73,523 -65,233 -214,533 -280,564 -44,22 -96,10 -128,-28 -40,-47 -35,-86 25,-191 100,-177 165,-353 211,-568 19,-92 22,-135 23,-345 0,-210 -3,-254 -22,-351 -43,-212 -113,-399 -216,-581 -30,-52 -47,-94 -47,-115 0,-18 18,-130 39,-248 60,-334 65,-360 59,-365 -3,-3 -18,-1 -34,4 -103,33 -489,131 -516,131 -22,0 -54,-13 -94,-39 -321,-209 -688,-310 -1074,-298 -180,6 -289,22 -450,67 -137,39 -188,59 -323,126 -441,221 -776,608 -932,1077 -104,312 -124,667 -54,982 60,272 198,562 361,760 346,420 799,657 1328,695 317,23 636,-37 917,-170 181,-86 296,-164 471,-317 45,-40 94,-76 107,-79 76,-19 149,56 131,133 -9,35 -125,148 -248,241 -271,204 -590,341 -928,397 -91,15 -407,28 -480,19 z"
       id="path951" />
    <path
       d="m 2549,3980 c -435,-50 -821,-299 -1055,-680 -149,-242 -221,-556 -194,-841 48,-499 335,-921 778,-1143 215,-108 382,-146 637,-147 213,0 396,40 584,128 189,87 409,257 432,332 15,50 -6,100 -53,125 -55,29 -93,17 -179,-60 -470,-417 -1174,-403 -1614,31 -109,108 -175,198 -240,330 -96,195 -132,368 -122,585 30,628 553,1125 1182,1124 305,-1 578,-107 813,-318 55,-49 68,-56 105,-56 49,0 81,19 102,60 31,60 9,107 -88,189 -205,174 -408,273 -659,322 -115,22 -321,31 -429,19 z"
       id="path953" />
    <path
       d="m 2595,3311 c -70,-11 -162,-39 -210,-63 -205,-105 -357,-299 -407,-519 -18,-80 -15,-242 6,-324 39,-153 149,-322 269,-413 289,-218 695,-201 949,38 54,52 58,58 58,102 0,64 -40,108 -99,108 -42,0 -91,-17 -91,-32 0,-15 -135,-98 -195,-119 -33,-12 -94,-23 -135,-26 -244,-17 -472,148 -535,388 -71,267 101,555 375,630 69,19 205,16 270,-5 82,-28 140,-59 192,-106 57,-50 100,-64 145,-49 69,22 96,109 53,169 -27,37 -130,115 -202,151 -120,60 -312,91 -443,70 z"
       id="path955" />
    <path
       d="m 3840,3223 c -21,-11 -42,-33 -53,-56 l -19,-38 42,-112 c 61,-161 80,-264 80,-433 0,-196 -14,-267 -106,-517 -18,-49 -10,-80 32,-117 42,-37 89,-40 130,-8 39,30 38,28 83,153 100,284 114,545 42,830 -66,258 -134,347 -231,298 z"
       id="path957" />
  </g>
</svg>
