<?xml version="1.0" encoding="UTF-8"?><svg id="Layer_2" xmlns="http://www.w3.org/2000/svg" xmlns:xlink="http://www.w3.org/1999/xlink" viewBox="0 0 177.43 192.07"><defs><style>.cls-1{fill:url(#linear-gradient);}.cls-2{fill:#0e0026;}</style><linearGradient id="linear-gradient" x1="153.76" y1="39.65" x2="107.02" y2="120.61" gradientTransform="translate(0 192.72) scale(1 -1)" gradientUnits="userSpaceOnUse"><stop offset="0" stop-color="#282fd8"/><stop offset="1" stop-color="#802992"/></linearGradient></defs><g id="Layer_1-2"><g id="uuid-2e265c54-f025-442c-aaf2-7e8c830c6f60"><path class="cls-2" d="m53.43,9.22l17.06,9.85c.68.4,1.1,1.12,1.1,1.91v36.65s.01,0,.02,0c1,0,1.99.27,2.86.77l10.69,6.17V13.51c0-.78-.42-1.51-1.1-1.91L64.48.3c-.68-.39-1.52-.39-2.2,0l-8.85,5.11c-1.47.85-1.47,2.97,0,3.82h0Z"/><path class="cls-2" d="m43.68,124.13l40.38-23.32c.07-.04.13-.08.19-.13.54-.39.87-1,.9-1.66,0-.04,0-.08,0-.11v-10.9l-13.55-7.82h-.02v11.26s0,.07,0,.1c-.03.68-.37,1.3-.92,1.69-.06.04-.11.08-.17.12l-20.73,11.97s-.01,0-.02.01l-6.06,3.5c-.68.39-1.52.39-2.2,0l-26.81-15.48c-.68-.39-1.1-1.12-1.1-1.91v-16.91c0-1.7-1.84-2.76-3.3-1.91l-9.16,5.29c-.68.39-1.1,1.12-1.1,1.91v19.09c0,.79.42,1.51,1.1,1.91l40.38,23.32c.68.39,1.52.39,2.2,0Z"/><path class="cls-1" d="m175.23,84.16l-42.34-24.44c-.68-.39-1.44-.59-2.2-.59s-1.52.2-2.2.59l-22.55,13.02c-1.47.85-1.47,2.97,0,3.82l9.11,5.51c.69.42,1.55.42,2.24.02l11.41-6.59c1.23-.71,2.74-.71,3.97,0l28.81,16.63c1.34.78,2.17,2.21,2.17,3.76v33.05c0,1.55-.83,2.99-2.17,3.76l-29.08,16.79c-1.06.61-2.37.61-3.43,0l-33.45-19.59c-.68-.4-1.53-.4-2.21,0l-9.36,5.4s-3.35,2.27,2.2,5.38l42.34,24.44c.68.39,1.44.59,2.2.59s1.52-.2,2.2-.59l42.34-24.44c1.36-.79,2.2-2.24,2.2-3.82v-48.89c0-1.57-.84-3.03-2.2-3.82h0Z"/><path class="cls-2" d="m121.01,167.9l-8.85-5.11c-.68-.39-1.52-.39-2.2,0l-23.69,13.68c-.68.39-1.52.39-2.2,0l-27.12-15.52c-.68-.39-1.1-1.12-1.1-1.91v-10.32c0-.68.33-1.4,1.06-1.88,0,0,.01-.01.02-.02.1-.07.21-.13.33-.18l36.38-20.99s0,0,0,0l19.46-11.23c.68-.39,1.1-1.12,1.1-1.91v-25.85c0-.79-.42-1.51-1.1-1.91l-40.38-23.31c-.68-.39-1.52-.39-2.2,0l-34.74,20.06c-1.47.85-1.47,2.97,0,3.82l8.85,5.11c.68.39,1.52.39,2.2,0l23.69-13.68c.68-.39,1.52-.39,2.2,0l26.81,15.48c.68.39,1.1,1.12,1.1,1.91v10.54c0,.79-.42,1.51-1.1,1.91l-55.84,32.22c-.68.39-1.1,1.12-1.1,1.91v23.97s0,0,0,0v1.88c0,.79.42,1.51,1.1,1.91l40.38,23.31c.68.39,1.52.39,2.2,0l34.74-20.06c1.47-.85,1.47-2.97,0-3.82h0Z"/></g></g></svg>