<?xml version="1.0" encoding="UTF-8" standalone="no"?>
<svg
   width="500"
   zoomAndPan="magnify"
   viewBox="0 0 375 374.99999"
   height="500"
   preserveAspectRatio="xMidYMid meet"
   version="1.0"
   id="svg2802"
   sodipodi:docname="mvp.svg"
   inkscape:version="1.1.2 (b8e25be8, 2022-02-05)"
   xmlns:inkscape="http://www.inkscape.org/namespaces/inkscape"
   xmlns:sodipodi="http://sodipodi.sourceforge.net/DTD/sodipodi-0.dtd"
   xmlns="http://www.w3.org/2000/svg"
   xmlns:svg="http://www.w3.org/2000/svg">
  <defs
     id="defs2806" />
  <sodipodi:namedview
     id="namedview2804"
     pagecolor="#ffffff"
     bordercolor="#666666"
     borderopacity="1.0"
     inkscape:pageshadow="2"
     inkscape:pageopacity="0.0"
     inkscape:pagecheckerboard="0"
     showgrid="false"
     inkscape:zoom="0.86772068"
     inkscape:cx="294.44959"
     inkscape:cy="250.6567"
     inkscape:window-width="1296"
     inkscape:window-height="905"
     inkscape:window-x="2089"
     inkscape:window-y="114"
     inkscape:window-maximized="0"
     inkscape:current-layer="svg2802" />
  <rect
     x="-37.5"
     width="450"
     fill="#ffffff"
     y="-37.5"
     height="450"
     fill-opacity="1"
     id="rect2786" />
  <rect
     x="-37.5"
     width="450"
     fill="#ffffff"
     y="-37.5"
     height="450"
     fill-opacity="1"
     id="rect2788" />
  <g
     id="g923">
    <path
       fill="#ffd200"
       d="m 371.4375,187.5 c 0,3.01172 -0.0742,6.01953 -0.22266,9.02344 -0.14843,3.00781 -0.36718,6.01172 -0.66406,9.0039 -0.29297,2.9961 -0.66406,5.98438 -1.10547,8.96094 -0.4414,2.98047 -0.95312,5.94531 -1.54297,8.89453 -0.58593,2.95313 -1.24609,5.89063 -1.97656,8.8086 -0.73047,2.92187 -1.53516,5.82031 -2.41016,8.70312 -0.87109,2.87891 -1.8164,5.73828 -2.83203,8.57031 -1.01172,2.83594 -2.09375,5.64453 -3.24609,8.42578 -1.15234,2.78125 -2.37109,5.53125 -3.66016,8.25391 -1.28515,2.71875 -2.64062,5.40625 -4.05859,8.0625 -1.41797,2.65625 -2.90234,5.27344 -4.44922,7.85547 -1.54687,2.58203 -3.16016,5.125 -4.83203,7.62891 -1.67188,2.5 -3.40625,4.96093 -5.19922,7.3789 -1.79297,2.41797 -3.64453,4.79297 -5.55078,7.11719 -1.91016,2.32812 -3.87891,4.60547 -5.89844,6.83594 -2.02344,2.23047 -4.09765,4.41015 -6.22656,6.53906 -2.12891,2.12891 -4.30859,4.20312 -6.53906,6.22656 -2.23047,2.01953 -4.50782,3.98828 -6.83594,5.89844 -2.32422,1.90625 -4.69922,3.75781 -7.11719,5.55078 -2.41797,1.79297 -4.8789,3.52734 -7.3789,5.19922 -2.50391,1.67187 -5.04688,3.28516 -7.62891,4.83203 -2.58203,1.54688 -5.19922,3.03125 -7.85547,4.44922 -2.65625,1.41797 -5.34375,2.77344 -8.0625,4.05859 -2.72266,1.28907 -5.47266,2.50782 -8.25391,3.66016 -2.78125,1.15234 -5.58984,2.23437 -8.42578,3.24609 -2.83203,1.01563 -5.6914,1.96094 -8.57031,2.83203 -2.88281,0.875 -5.78125,1.67969 -8.70312,2.41016 -2.91797,0.73047 -5.85547,1.39063 -8.8086,1.97656 -2.94922,0.58985 -5.91406,1.10157 -8.89453,1.54297 -2.97656,0.44141 -5.96484,0.8125 -8.96094,1.10547 -2.99218,0.29688 -5.99609,0.51563 -9.0039,0.66406 -3.00391,0.14844 -6.01172,0.22266 -9.02344,0.22266 -3.01172,0 -6.01953,-0.0742 -9.02734,-0.22266 -3.00391,-0.14843 -6.00782,-0.36718 -9,-0.66406 -2.9961,-0.29297 -5.98438,-0.66406 -8.96094,-1.10547 -2.98047,-0.4414 -5.94531,-0.95312 -8.89453,-1.54297 -2.95313,-0.58593 -5.89063,-1.24609 -8.8086,-1.97656 -2.92187,-0.73047 -5.82031,-1.53516 -8.70312,-2.41016 -2.87891,-0.87109 -5.73828,-1.8164 -8.57031,-2.83203 -2.83594,-1.01172 -5.64453,-2.09375 -8.42578,-3.24609 -2.78125,-1.15234 -5.53125,-2.37109 -8.25391,-3.66016 -2.71875,-1.28515 -5.40625,-2.64062 -8.0625,-4.05859 -2.656251,-1.41797 -5.273439,-2.90234 -7.85547,-4.44922 -2.582031,-1.54687 -5.125,-3.16016 -7.628906,-4.83203 -2.5,-1.67188 -4.960938,-3.40625 -7.378906,-5.19922 -2.417969,-1.79297 -4.792969,-3.64453 -7.117188,-5.55078 -2.328125,-1.91016 -4.605469,-3.87891 -6.835938,-5.89844 -2.230468,-2.02344 -4.410156,-4.09765 -6.539062,-6.22656 -2.128906,-2.12891 -4.203125,-4.30859 -6.226562,-6.53906 -2.019532,-2.23047 -3.988282,-4.50782 -5.898438,-6.83594 -1.90625,-2.32422 -3.757812,-4.69922 -5.550781,-7.11719 -1.796875,-2.41797 -3.527344,-4.8789 -5.199219,-7.3789 -1.671875,-2.50391 -3.285156,-5.04688 -4.832031,-7.62891 -1.546875,-2.58203 -3.03125,-5.19922 -4.449219,-7.85547 -1.417969,-2.65625 -2.773438,-5.34375 -4.058594,-8.0625 -1.289062,-2.72266 -2.507812,-5.47266 -3.660156,-8.25391 -1.152344,-2.78125 -2.234375,-5.58984 -3.246094,-8.42578 -1.015625,-2.83203 -1.960937,-5.6914 -2.832031,-8.57031 -0.875,-2.88281 -1.679687,-5.78125 -2.410156,-8.70312 -0.730469,-2.91797 -1.390625,-5.85547 -1.976563,-8.8086 -0.589844,-2.94922 -1.101562,-5.91406 -1.542968,-8.89453 -0.441407,-2.97656 -0.8125,-5.96484 -1.105469,-8.96094 -0.296875,-2.99218 -0.515625,-5.99609 -0.664063,-9.0039 C 3.636719,193.51953 3.5625,190.51172 3.5625,187.5 c 0,-3.01172 0.074219,-6.01953 0.222656,-9.02734 0.148438,-3.00391 0.367188,-6.00782 0.664063,-9 0.292969,-2.9961 0.664062,-5.98438 1.105469,-8.96094 0.441406,-2.98047 0.953124,-5.94531 1.542968,-8.89453 0.585938,-2.95313 1.246094,-5.89063 1.976563,-8.8086 0.730469,-2.92187 1.535156,-5.82031 2.410156,-8.70312 0.871094,-2.87891 1.816406,-5.73828 2.832031,-8.57031 1.011719,-2.83594 2.09375,-5.64453 3.246094,-8.42578 1.152344,-2.78125 2.371094,-5.53125 3.660156,-8.25391 1.285156,-2.71875 2.640625,-5.40625 4.058594,-8.0625 1.417969,-2.656251 2.902344,-5.273439 4.449219,-7.85547 1.546875,-2.582031 3.160156,-5.125 4.832031,-7.628906 1.671875,-2.5 3.402344,-4.960938 5.199219,-7.378906 1.792969,-2.417969 3.644531,-4.792969 5.550781,-7.117188 1.910156,-2.328125 3.878906,-4.605469 5.898438,-6.835938 2.023437,-2.230468 4.097656,-4.410156 6.226562,-6.539062 2.128906,-2.128906 4.308594,-4.203125 6.539062,-6.226562 2.230469,-2.019532 4.507813,-3.988282 6.835938,-5.898438 2.324219,-1.90625 4.699219,-3.757812 7.117188,-5.550781 2.417968,-1.796875 4.878906,-3.527344 7.378906,-5.199219 2.503906,-1.671875 5.046875,-3.285156 7.628906,-4.832031 2.582031,-1.546875 5.199219,-3.03125 7.85547,-4.449219 2.65234,-1.417969 5.34375,-2.773438 8.0625,-4.058594 2.72266,-1.289062 5.47266,-2.507812 8.25391,-3.660156 2.78125,-1.152344 5.58984,-2.234375 8.42578,-3.246094 2.83203,-1.015625 5.6914,-1.960937 8.57031,-2.832031 2.88281,-0.875 5.78125,-1.679687 8.70312,-2.410156 2.91797,-0.730469 5.85547,-1.390625 8.8086,-1.976563 2.94922,-0.589844 5.91406,-1.101562 8.89453,-1.542968 2.97656,-0.441407 5.96484,-0.8125 8.96094,-1.105469 2.99218,-0.296875 5.99609,-0.515625 9,-0.664063 C 181.48047,3.636719 184.48828,3.5625 187.5,3.5625 c 3.01172,0 6.01953,0.074219 9.02344,0.222656 3.00781,0.148438 6.01172,0.367188 9.0039,0.664063 2.9961,0.292969 5.98438,0.664062 8.96094,1.105469 2.98047,0.441406 5.94531,0.953124 8.89453,1.542968 2.95313,0.585938 5.89063,1.246094 8.8086,1.976563 2.92187,0.730469 5.82031,1.535156 8.70312,2.410156 2.87891,0.871094 5.73828,1.816406 8.57031,2.832031 2.83594,1.011719 5.64453,2.09375 8.42578,3.246094 2.78125,1.152344 5.53125,2.371094 8.25391,3.660156 2.71875,1.285156 5.40625,2.640625 8.0625,4.058594 2.65625,1.417969 5.27344,2.902344 7.85547,4.449219 2.58203,1.546875 5.125,3.160156 7.62891,4.832031 2.5,1.671875 4.96093,3.402344 7.3789,5.199219 2.41797,1.792969 4.79297,3.644531 7.11719,5.550781 2.32812,1.910156 4.60547,3.878906 6.83594,5.898438 2.23047,2.023437 4.41015,4.097656 6.53906,6.226562 2.12891,2.128906 4.20312,4.308594 6.22656,6.539062 2.01953,2.230469 3.98828,4.507813 5.89844,6.835938 1.90625,2.324219 3.75781,4.699219 5.55078,7.117188 1.79297,2.417968 3.52734,4.878906 5.19922,7.378906 1.67187,2.503906 3.28516,5.046875 4.83203,7.628906 1.54688,2.582031 3.03125,5.199219 4.44922,7.85547 1.41797,2.65234 2.77344,5.34375 4.05859,8.0625 1.28907,2.72266 2.50782,5.47266 3.66016,8.25391 1.15234,2.78125 2.23437,5.58984 3.24609,8.42578 1.01563,2.83203 1.96094,5.6914 2.83203,8.57031 0.875,2.88281 1.67969,5.78125 2.41016,8.70312 0.73047,2.91797 1.39063,5.85547 1.97656,8.8086 0.58985,2.94922 1.10157,5.91406 1.54297,8.89453 0.44141,2.97656 0.8125,5.96484 1.10547,8.96094 0.29688,2.99218 0.51563,5.99609 0.66406,9 0.14844,3.00781 0.22266,6.01562 0.22266,9.02734 z m 0,0"
       fill-opacity="1"
       fill-rule="nonzero"
       id="path2790" />
    <path
       fill="#ffb400"
       d="m 322.875,187.5 c 0,2.21484 -0.0547,4.42969 -0.16406,6.64062 -0.10938,2.21485 -0.26953,4.42188 -0.48828,6.62891 -0.21485,2.20313 -0.48829,4.40234 -0.8125,6.59375 -0.32422,2.19141 -0.70313,4.375 -1.13672,6.54688 -0.4336,2.17187 -0.91797,4.33593 -1.45703,6.48437 -0.53516,2.14844 -1.12891,4.28125 -1.76954,6.40234 -0.64453,2.1211 -1.33984,4.22266 -2.08593,6.3086 -0.7461,2.08594 -1.54297,4.15234 -2.39063,6.19922 -0.84765,2.04687 -1.74609,4.07422 -2.6914,6.07422 -0.94922,2.0039 -1.94532,3.98437 -2.98829,5.9375 -1.04687,1.95312 -2.13671,3.8789 -3.27734,5.78125 -1.13672,1.89843 -2.32422,3.76953 -3.55469,5.61328 -1.23047,1.83984 -2.5039,3.65234 -3.82422,5.43359 -1.32031,1.77734 -2.68359,3.52344 -4.08984,5.23828 -1.40234,1.71094 -2.85156,3.38672 -4.33984,5.03125 -1.48828,1.64063 -3.01172,3.24219 -4.58203,4.8086 -1.56641,1.57031 -3.16797,3.09765 -4.8086,4.58203 -1.64453,1.48828 -3.32031,2.9375 -5.03125,4.33984 -1.71484,1.40625 -3.46094,2.76953 -5.23828,4.08984 -1.78125,1.32032 -3.59375,2.59375 -5.43359,3.82422 -1.84375,1.23047 -3.71485,2.41797 -5.61328,3.55469 -1.90235,1.14063 -3.82813,2.23047 -5.78125,3.27734 -1.95313,1.04297 -3.9336,2.03907 -5.9375,2.98829 -2,0.94531 -4.02735,1.84375 -6.07422,2.6914 -2.04688,0.84766 -4.11328,1.64453 -6.19922,2.39063 -2.08594,0.74609 -4.1875,1.4414 -6.3086,2.08593 -2.12109,0.64063 -4.2539,1.23438 -6.40234,1.76954 -2.14844,0.53906 -4.3125,1.02343 -6.48437,1.45703 -2.17188,0.43359 -4.35547,0.8125 -6.54688,1.13672 -2.19141,0.32421 -4.39062,0.59765 -6.59375,0.8125 -2.20703,0.21875 -4.41406,0.3789 -6.62891,0.48828 -2.21093,0.10937 -4.42578,0.16406 -6.64062,0.16406 -2.21484,0 -4.42969,-0.0547 -6.64063,-0.16406 -2.21484,-0.10938 -4.42187,-0.26953 -6.6289,-0.48828 -2.20313,-0.21485 -4.40235,-0.48829 -6.59375,-0.8125 -2.19141,-0.32422 -4.375,-0.70313 -6.54688,-1.13672 -2.17187,-0.4336 -4.33593,-0.91797 -6.48437,-1.45703 -2.14844,-0.53516 -4.28125,-1.12891 -6.40235,-1.76954 -2.12109,-0.64453 -4.22265,-1.33984 -6.30859,-2.08593 -2.08594,-0.7461 -4.15234,-1.54297 -6.19922,-2.39063 -2.04687,-0.84765 -4.07422,-1.74609 -6.07422,-2.6914 -2.0039,-0.94922 -3.98437,-1.94532 -5.9375,-2.98829 -1.95312,-1.04687 -3.8789,-2.13671 -5.78125,-3.27734 -1.89843,-1.13672 -3.76953,-2.32422 -5.61328,-3.55469 -1.83984,-1.23047 -3.65234,-2.5039 -5.43359,-3.82422 -1.77734,-1.32031 -3.52344,-2.68359 -5.23828,-4.08984 -1.71094,-1.40234 -3.386721,-2.85156 -5.031252,-4.33984 -1.640626,-1.48828 -3.242188,-3.01172 -4.808594,-4.58203 -1.570313,-1.56641 -3.097656,-3.16797 -4.582032,-4.8086 -1.488281,-1.64453 -2.9375,-3.32031 -4.339843,-5.03125 -1.40625,-1.71484 -2.769531,-3.46094 -4.089844,-5.23828 -1.320313,-1.78125 -2.59375,-3.59375 -3.824219,-5.43359 -1.234375,-1.84375 -2.417968,-3.71485 -3.554687,-5.61328 -1.140625,-1.90235 -2.234375,-3.82813 -3.277344,-5.78125 -1.042969,-1.95313 -2.039063,-3.9336 -2.988281,-5.9375 -0.945313,-2 -1.84375,-4.02735 -2.691406,-6.07422 -0.847657,-2.04688 -1.644532,-4.11328 -2.390626,-6.19922 -0.746093,-2.08594 -1.441406,-4.1875 -2.085937,-6.3086 -0.640625,-2.12109 -1.234375,-4.2539 -1.769531,-6.40234 -0.539063,-2.14844 -1.023438,-4.3125 -1.457032,-6.48437 -0.433593,-2.17188 -0.8125,-4.35547 -1.136718,-6.54688 -0.324219,-2.19141 -0.597656,-4.39062 -0.8125,-6.59375 -0.21875,-2.20703 -0.378906,-4.41406 -0.488282,-6.62891 C 52.179688,191.92969 52.125,189.71484 52.125,187.5 c 0,-2.21484 0.05469,-4.42969 0.164062,-6.64063 0.109376,-2.21484 0.269532,-4.42187 0.488282,-6.6289 0.214844,-2.20313 0.488281,-4.40235 0.8125,-6.59375 0.324218,-2.19141 0.703125,-4.375 1.136718,-6.54688 0.433594,-2.17187 0.917969,-4.33593 1.457032,-6.48437 0.535156,-2.14844 1.128906,-4.28125 1.769531,-6.40235 0.644531,-2.12109 1.339844,-4.22265 2.085937,-6.30859 0.746094,-2.08594 1.542969,-4.15234 2.390626,-6.19922 0.847656,-2.04687 1.746093,-4.07422 2.691406,-6.07422 0.949218,-2.0039 1.945312,-3.98437 2.988281,-5.9375 1.042969,-1.95312 2.136719,-3.8789 3.277344,-5.78125 1.136719,-1.89843 2.320312,-3.76953 3.554687,-5.61328 1.230469,-1.83984 2.503906,-3.65234 3.824219,-5.43359 1.320313,-1.77734 2.683594,-3.52344 4.089844,-5.23828 1.402343,-1.71094 2.851562,-3.386721 4.339843,-5.031252 1.484376,-1.640626 3.011719,-3.242188 4.582032,-4.808594 1.566406,-1.570313 3.167968,-3.097656 4.808594,-4.582032 1.644531,-1.488281 3.320312,-2.9375 5.031252,-4.339843 1.71484,-1.40625 3.46094,-2.769531 5.23828,-4.089844 1.78125,-1.320313 3.59375,-2.59375 5.43359,-3.824219 1.84375,-1.234375 3.71485,-2.417968 5.61328,-3.554687 1.90235,-1.140625 3.82813,-2.234375 5.78125,-3.277344 1.95313,-1.042969 3.9336,-2.039063 5.9375,-2.988281 2,-0.945313 4.02735,-1.84375 6.07422,-2.691406 2.04688,-0.847657 4.11328,-1.644532 6.19922,-2.390626 2.08594,-0.746093 4.1875,-1.441406 6.30859,-2.085937 2.1211,-0.640625 4.25391,-1.234375 6.40235,-1.769531 2.14844,-0.539063 4.3125,-1.023438 6.48437,-1.457032 2.17188,-0.433593 4.35547,-0.8125 6.54688,-1.136718 2.1914,-0.324219 4.39062,-0.597656 6.59375,-0.8125 2.20703,-0.21875 4.41406,-0.378906 6.6289,-0.488282 2.21094,-0.109374 4.42579,-0.164062 6.64063,-0.164062 2.21484,0 4.42969,0.05469 6.64062,0.164062 2.21485,0.109376 4.42188,0.269532 6.62891,0.488282 2.20313,0.214844 4.40234,0.488281 6.59375,0.8125 2.19141,0.324218 4.375,0.703125 6.54688,1.136718 2.17187,0.433594 4.33593,0.917969 6.48437,1.457032 2.14844,0.535156 4.28125,1.128906 6.40234,1.769531 2.1211,0.644531 4.22266,1.339844 6.3086,2.085937 2.08594,0.746094 4.15234,1.542969 6.19922,2.390626 2.04687,0.847656 4.07422,1.746093 6.07422,2.691406 2.0039,0.949218 3.98437,1.945312 5.9375,2.988281 1.95312,1.042969 3.8789,2.136719 5.78125,3.277344 1.89843,1.136719 3.76953,2.320312 5.61328,3.554687 1.83984,1.230469 3.65234,2.503906 5.43359,3.824219 1.77734,1.320313 3.52344,2.683594 5.23828,4.089844 1.71094,1.402343 3.38672,2.851562 5.03125,4.339843 1.64063,1.484376 3.24219,3.011719 4.8086,4.582032 1.57031,1.566406 3.09765,3.167968 4.58203,4.808594 1.48828,1.644531 2.9375,3.320312 4.33984,5.031252 1.40625,1.71484 2.76953,3.46094 4.08984,5.23828 1.32032,1.78125 2.59375,3.59375 3.82422,5.43359 1.23047,1.84375 2.41797,3.71485 3.55469,5.61328 1.14063,1.90235 2.23047,3.82813 3.27734,5.78125 1.04297,1.95313 2.03907,3.9336 2.98829,5.9375 0.94531,2 1.84375,4.02735 2.6914,6.07422 0.84766,2.04688 1.64453,4.11328 2.39063,6.19922 0.74609,2.08594 1.4414,4.1875 2.08593,6.30859 0.64063,2.1211 1.23438,4.25391 1.76954,6.40235 0.53906,2.14844 1.02343,4.3125 1.45703,6.48437 0.43359,2.17188 0.8125,4.35547 1.13672,6.54688 0.32421,2.1914 0.59765,4.39062 0.8125,6.59375 0.21875,2.20703 0.3789,4.41406 0.48828,6.6289 0.10937,2.21094 0.16406,4.42579 0.16406,6.64063 z m 0,0"
       fill-opacity="1"
       fill-rule="nonzero"
       id="path2792" />
    <path
       fill="#ffa000"
       d="M 187.5,326.25 C 111,326.25 48.75,264 48.75,187.5 48.75,111 111,48.75 187.5,48.75 264,48.75 326.25,111 326.25,187.5 326.25,264 264,326.25 187.5,326.25 Z m 0,-270.5625 c -72.5625,0 -131.8125,59.0625 -131.8125,131.8125 0,72.75 59.0625,131.8125 131.8125,131.8125 72.75,0 131.8125,-59.0625 131.8125,-131.8125 0,-72.5625 -59.25,-131.8125 -131.8125,-131.8125 z m 0,0"
       fill-opacity="1"
       fill-rule="nonzero"
       id="path2794" />
    <path
       fill="#ffa000"
       d="M 187.5,375 C 84.1875,375 0,290.8125 0,187.5 0,84.1875 84.1875,0 187.5,0 290.8125,0 375,84.1875 375,187.5 375,290.8125 290.8125,375 187.5,375 Z m 0,-368.0625 c -99.5625,0 -180.5625,81 -180.5625,180.5625 0,99.5625 81,180.5625 180.5625,180.5625 99.5625,0 180.5625,-81 180.5625,-180.5625 0,-99.5625 -81,-180.5625 -180.5625,-180.5625 z m 0,0"
       fill-opacity="1"
       fill-rule="nonzero"
       id="path2796" />
    <path
       fill="#ffa000"
       d="m 183.1875,361.6875 c -2.4375,0 -4.5,-2.0625 -4.3125,-4.6875 L 180,334.875 c 0.1875,-2.25 1.875,-3.9375 4.125,-3.9375 2.25,0 4.125,1.875 3.9375,4.125 l -0.375,22.125 c 0,2.625 -2.0625,4.6875 -4.5,4.5 z m 33.5625,-6.75 -3.9375,-22.3125 c -0.375,-2.0625 0.9375,-3.9375 3,-4.3125 2.0625,-0.375 3.9375,0.75 4.3125,2.8125 l 5.0625,21.9375 c 0.5625,2.4375 -0.9375,4.6875 -3.375,5.25 0,0 -0.1875,0 -0.1875,0 -2.25,0.5625 -4.5,-0.9375 -4.875,-3.375 z m -72.1875,1.5 C 142.125,355.875 140.625,353.25 141.375,351 l 6,-21.75 c 0.5625,-1.875 2.625,-3 4.5,-2.625 2.0625,0.5625 3.1875,2.4375 2.8125,4.5 L 150,353.0625 c -0.5625,2.4375 -3,3.9375 -5.4375,3.375 z M 253.3125,344.25 244.5,323.4375 c -0.75,-1.875 0,-3.9375 1.875,-4.875 1.875,-0.75 4.125,0 4.875,1.6875 L 261,340.5 c 1.125,2.25 0.1875,4.875 -2.0625,5.8125 0,0 -0.1875,0 -0.1875,0 -2.0625,1.125 -4.5,0.1875 -5.4375,-2.0625 z M 108,342.5625 c -2.25,-1.125 -3,-3.9375 -1.875,-6 L 117,316.6875 c 0.9375,-1.875 3.1875,-2.4375 5.0625,-1.5 1.875,0.9375 2.625,3.1875 1.6875,4.875 l -9.75,20.25 c -1.125,2.4375 -3.75,3.375 -6,2.25 z m 178.3125,-16.875 -13.125,-18.375 c -1.125,-1.6875 -0.75,-3.9375 0.75,-5.0625 1.6875,-1.3125 3.9375,-0.9375 5.25,0.5625 l 14.0625,17.625 c 1.5,1.875 1.125,4.6875 -0.75,6.1875 0,0 0,0 -0.1875,0.1875 -1.6875,1.3125 -4.5,0.75 -6,-1.125 z M 75.5625,321 C 73.6875,319.3125 73.5,316.5 75,314.625 L 90,297.75 c 1.3125,-1.5 3.75,-1.6875 5.25,-0.375 1.5,1.3125 1.875,3.5625 0.5625,5.25 L 81.75,320.25 c -1.5,2.0625 -4.3125,2.4375 -6.1875,0.75 z M 314.625,300 297.75,285 c -1.5,-1.3125 -1.6875,-3.5625 -0.375,-5.25 1.3125,-1.5 3.5625,-1.875 5.25,-0.5625 L 320.25,293.25 c 1.875,1.5 2.25,4.3125 0.5625,6.1875 0,0 0,0 -0.1875,0.1875 -1.3125,1.875 -4.125,2.0625 -6,0.375 z M 48.75,292.875 c 0,0 -0.1875,0 0,0 -1.5,-2.0625 -1.125,-4.875 0.9375,-6.1875 l 18.375,-13.125 c 1.6875,-1.125 3.9375,-0.75 5.25,0.75 C 74.625,276 74.25,278.25 72.75,279.5625 L 55.125,293.625 c -2.0625,1.5 -4.875,1.125 -6.375,-0.75 z m 287.8125,-23.8125 -19.875,-10.875 c -1.875,-0.9375 -2.4375,-3.1875 -1.5,-5.0625 0,0 0,0 0,-0.1875 0.9375,-1.875 3.1875,-2.625 4.875,-1.6875 l 20.25,9.75 c 2.25,1.125 3.1875,3.75 2.0625,5.8125 0,0 0,0.1875 0,0.1875 -0.9375,2.4375 -3.75,3.1875 -5.8125,2.0625 z m -307.875,-9.75 c -1.125,-2.25 0,-4.875 2.25,-5.8125 L 51.75,244.6875 c 1.875,-0.75 3.9375,0 4.875,1.875 0.75,1.875 0,4.125 -1.6875,4.875 l -20.25,9.75 c -2.25,1.3125 -4.875,0.375 -6,-1.875 z M 351,233.8125 329.25,227.625 c -1.875,-0.5625 -3,-2.625 -2.625,-4.5 0,0 0,0 0,-0.1875 0.5625,-2.0625 2.4375,-3.1875 4.5,-2.8125 l 21.9375,5.0625 c 2.4375,0.5625 3.9375,3 3.375,5.25 -0.75,2.625 -3.1875,3.9375 -5.4375,3.375 z M 16.6875,222.375 c 0,-0.1875 0,-0.1875 0,-0.375 -0.5625,-2.4375 1.125,-4.6875 3.5625,-5.0625 L 42.75,213 c 1.875,-0.375 3.75,0.9375 4.125,2.8125 0,0.1875 0,0.1875 0,0.375 0.375,1.875 -0.75,3.75 -2.625,4.3125 l -22.125,5.0625 C 19.5,226.125 17.25,224.625 16.6875,222.375 Z M 357,196.3125 l -22.125,-1.125 c -2.25,-0.1875 -3.9375,-1.875 -3.9375,-4.125 0,0 0,0 0,-0.1875 0,-2.25 1.875,-3.9375 4.125,-3.9375 h 22.125 c 2.4375,0 4.5,2.0625 4.3125,4.5 0,0.1875 0,0.375 0,0.75 0.1875,2.25 -2.0625,4.125 -4.5,4.125 z M 13.3125,183.375 c 0,-2.625 2.0625,-4.5 4.5,-4.3125 l 22.6875,1.125 c 1.875,0.1875 3.375,1.6875 3.375,3.75 0,1.875 -1.6875,3.5625 -3.5625,3.5625 l -22.6875,0.1875 c -2.4375,0.1875 -4.3125,-1.875 -4.3125,-4.3125 z m 314.8125,-24.75 c -0.375,-2.0625 0.75,-4.125 2.8125,-4.5 l 21.9375,-5.0625 c 2.4375,-0.5625 4.875,0.9375 5.25,3.375 0,0 0,0 0,0.1875 0.5625,2.4375 -1.125,4.6875 -3.5625,5.25 l -22.125,3.9375 C 330.5625,162 328.5,160.6875 328.125,158.625 Z M 43.875,155.0625 21.75,150 c -2.25,-0.5625 -3.75,-2.8125 -3.1875,-5.25 0,-0.1875 0,-0.1875 0,-0.375 0.5625,-2.25 3,-3.75 5.25,-3 l 21.9375,6.1875 c 1.875,0.5625 3,2.4375 2.4375,4.3125 0,0.1875 0,0.1875 0,0.375 -0.375,2.0625 -2.25,3.1875 -4.3125,2.8125 z m 274.3125,-27 C 317.25,126.1875 318,123.9375 319.875,123 l 20.25,-9.9375 c 2.25,-1.125 4.875,-0.1875 5.8125,2.0625 0.9375,2.25 0,4.875 -2.25,5.8125 L 322.875,129.75 c -1.6875,1.125 -3.75,0.1875 -4.6875,-1.6875 z m -263.625,-4.125 -20.25,-9.75 c -2.25,-1.125 -3.1875,-3.75 -2.0625,-6 0,0 0,0 0,-0.1875 1.125,-2.25 3.9375,-3 6,-1.875 l 19.875,11.0625 c 1.875,0.9375 2.4375,3.1875 1.5,5.0625 -0.9375,1.6875 -3.1875,2.625 -5.0625,1.6875 z M 301.6875,100.5 c -1.3125,-1.6875 -1.125,-3.9375 0.5625,-5.25 l 17.625,-14.0625 c 1.875,-1.5 4.6875,-1.3125 6.1875,0.75 1.5,1.875 1.125,4.6875 -0.9375,6.1875 l -18.1875,13.125 c -1.6875,1.3125 -3.9375,0.9375 -5.25,-0.75 z M 72.1875,96 54.5625,81.9375 c -1.875,-1.5 -2.25,-4.3125 -0.75,-6.1875 1.5,-1.875 4.5,-2.0625 6.1875,-0.375 l 16.875,15 c 1.5,1.3125 1.6875,3.75 0.375,5.25 -1.3125,1.5 -3.5625,1.6875 -5.0625,0.375 z M 279.5625,77.25 C 277.875,75.9375 277.6875,73.6875 279,72 l 14.0625,-17.625 c 1.5,-1.875 4.3125,-2.25 6.1875,-0.75 1.875,1.5 2.0625,4.5 0.375,6.1875 l -14.8125,16.875 c -1.3125,1.6875 -3.75,1.875 -5.25,0.5625 z M 95.4375,72.75 81.375,55.125 c -1.5,-1.875 -1.3125,-4.6875 0.75,-6.1875 C 84,47.4375 86.8125,48 88.3125,49.875 l 13.125,18.1875 c 1.125,1.6875 0.75,3.9375 -0.75,5.25 C 99,74.4375 96.75,74.25 95.4375,72.75 Z M 252.75,59.625 c 0,0 0,-0.1875 0,0 -1.875,-0.9375 -2.625,-3.1875 -1.6875,-5.0625 l 9.75,-20.25 c 1.125,-2.25 3.75,-3.1875 6,-2.0625 2.25,1.125 3,3.9375 1.875,6 L 258,57.9375 c -1.3125,1.875 -3.375,2.625 -5.25,1.6875 z M 123.1875,54.9375 113.25,34.6875 c -1.125,-2.25 -0.1875,-4.875 2.0625,-6 2.25,-0.9375 4.875,0 5.8125,2.25 l 8.8125,20.8125 c 0.75,1.875 0,3.9375 -1.875,4.875 -1.6875,0.9375 -3.9375,0.1875 -4.875,-1.6875 z m 99.375,-6.75 C 220.5,47.625 219.1875,45.75 219.75,43.6875 L 224.625,21.75 c 0.5625,-2.4375 3,-3.9375 5.25,-3.375 2.4375,0.5625 3.75,3 3.1875,5.4375 l -6,21.75 c -0.375,2.0625 -2.4375,3.1875 -4.5,2.625 z m -68.25,-4.125 L 149.25,22.125 c -0.5625,-2.4375 0.9375,-4.875 3.375,-5.25 2.4375,-0.5625 4.6875,1.125 5.25,3.5625 l 3.9375,22.125 c 0.375,2.0625 -0.9375,3.9375 -3,4.3125 -2.0625,0.375 -4.125,-0.9375 -4.5,-2.8125 z m 36.5625,0 c -0.1875,0 -0.1875,0 0,0 -2.25,0 -3.75,-1.6875 -3.75,-3.75 v -22.5 c 0,-2.4375 2.0625,-4.3125 4.3125,-4.3125 0,0 0,0 0.1875,0 2.4375,0 4.3125,2.0625 4.3125,4.5 l -1.125,22.5 c -0.1875,1.875 -1.875,3.5625 -3.9375,3.5625 z m 0,0"
       fill-opacity="1"
       fill-rule="nonzero"
       id="path2798" />
    <text
       xml:space="preserve"
       style="font-style:normal;font-variant:normal;font-weight:normal;font-stretch:normal;font-size:189.219px;line-height:1.25;font-family:ARCO;-inkscape-font-specification:ARCO;fill:#000000;fill-opacity:1;stroke:none;stroke-width:4.73048"
       x="96.313667"
       y="269.33102"
       id="text5024"
       transform="scale(1.1088242,0.90185621)"><tspan
         sodipodi:role="line"
         id="tspan5022"
         style="font-style:normal;font-variant:normal;font-weight:normal;font-stretch:normal;font-family:Phosphate;-inkscape-font-specification:Phosphate;fill:#f2f2f2;stroke-width:4.73048"
         x="96.313667"
         y="269.33102">M</tspan></text>
  </g>
</svg>
